<?xml version="1.0" encoding="utf-8"?>
<!-- Generator: Adobe Illustrator 16.0.0, SVG Export Plug-In . SVG Version: 6.00 Build 0)  -->
<!DOCTYPE svg PUBLIC "-//W3C//DTD SVG 1.1//EN" "http://www.w3.org/Graphics/SVG/1.1/DTD/svg11.dtd">
<svg version="1.1" id="Calque_1" xmlns="http://www.w3.org/2000/svg" xmlns:xlink="http://www.w3.org/1999/xlink" x="0px" y="0px"
	 width="2902.68px" height="3872.13px" viewBox="0 0 2902.68 3872.13" enable-background="new 0 0 2902.68 3872.13"
	 xml:space="preserve">
<g>
	<path fill="none" d="M1738.059,1680.924l58.077,58.102c-0.694-6.839-1.351-13.77-1.816-20.746
		c-8.737-132.859,36.923-252.202,112.019-319.482c83.241,56.839,144.147,169.209,152.904,302.02
		c6.169,93.699-14.827,180.606-53.987,247.306l89.517,89.517c33.127,33.078,33.127,86.814,0,119.94
		c-16.558,16.563-38.235,24.841-59.949,24.841c-21.715,0-43.431-8.277-59.94-24.841l-89.515-89.52
		c-58.442,34.299-132.256,54.593-212.521,55.001c-11.502,0.088-23.063-0.273-34.818-1.037c-24.766-1.623-48.513-5.625-71.626-10.666
		c-100.858-22.1-184.16-74.53-230.375-142.263l0,0l0,0c67.237-75.073,186.634-120.751,319.492-111.974
		c6.975,0.449,13.886,1.082,20.727,1.847l-58.104-58.106c-50.065,29.389-111.479,48.47-178.514,53.603
		c-22.365,1.71-45.366,1.894-68.772,0.36c-12.911-0.854-25.473-2.611-37.98-4.41l-560.903,560.86
		c12.978,10.351,26.143,20.254,39.469,29.884c4.541,3.329,9.129,6.39,13.682,9.588c8.866,6.209,17.778,12.424,26.774,18.361
		c5.489,3.646,11.119,7.108,16.674,10.62c8.216,5.178,16.409,10.353,24.737,15.349c5.975,3.554,12.01,6.972,18.046,10.438
		c8.055,4.641,16.108,9.139,24.275,13.554c6.276,3.371,12.533,6.653,18.862,9.897c8.069,4.141,16.128,8.19,24.327,12.105
		c6.384,3.108,12.822,6.168,19.305,9.184c8.236,3.736,16.515,7.38,24.791,10.981c6.444,2.743,12.901,5.532,19.36,8.189
		c8.548,3.47,17.187,6.755,25.786,10.035c6.304,2.384,12.647,4.862,18.992,7.158c9.317,3.328,18.639,6.396,27.994,9.45
		c5.764,1.885,11.476,3.914,17.239,5.671c13.367,4.184,26.778,8.011,40.234,11.609c5.059,1.394,10.149,2.614,15.209,3.919
		c11.792,3.015,23.608,5.896,35.444,8.505c6.387,1.435,12.804,2.559,19.236,3.868c9.049,1.805,18.097,3.646,27.162,5.268
		c7.051,1.217,14.066,2.25,21.135,3.328c8.48,1.352,17.013,2.655,25.561,3.778c7.292,0.944,14.63,1.759,21.918,2.609
		c8.349,0.906,16.697,1.803,25.069,2.574c7.401,0.632,14.804,1.209,22.231,1.707c8.302,0.586,16.606,1.082,24.981,1.439
		c7.426,0.313,14.85,0.674,22.276,0.856c293.999,7.786,590.429-100.316,814.803-324.674
		c403.3-403.342,431.516-1039.572,84.815-1475.565l-544.749,544.706c1.804,12.485,3.557,25.044,4.388,37.959
		C1798.187,1527.29,1777.233,1614.181,1738.059,1680.924z"/>
	<path fill="none" d="M1378.737,391.615c-11.814,0.451-23.607,1.125-35.424,1.98c-5.847,0.382-11.657,0.788-17.463,1.304
		c-11.904,1.036-23.759,2.294-35.644,3.735c-5.604,0.655-11.226,1.262-16.854,2.025c-12.377,1.665-24.727,3.624-37.06,5.694
		c-4.995,0.831-9.994,1.6-14.97,2.496c-13.795,2.523-27.516,5.404-41.197,8.461c-3.468,0.747-6.98,1.397-10.405,2.208
		c-34.627,8.031-68.921,17.733-102.766,29.116c-3.688,1.261-7.313,2.658-10.976,3.941c-12.939,4.521-25.865,9.137-38.64,14.151
		c-5.498,2.138-10.939,4.504-16.379,6.733c-10.897,4.453-21.742,8.976-32.547,13.79c-6.12,2.746-12.169,5.649-18.274,8.506
		c-9.987,4.683-19.938,9.473-29.86,14.469c-6.343,3.22-12.668,6.593-18.99,9.948c-9.471,5.018-18.923,10.191-28.332,15.548
		c-6.365,3.6-12.715,7.337-19.014,11.095c-9.199,5.513-18.317,11.14-27.384,16.922c-6.306,3.982-12.558,7.987-18.727,12.083
		c-9.04,6.031-17.999,12.288-26.909,18.61c-5.991,4.231-11.974,8.416-17.869,12.805c-9.089,6.707-18.047,13.727-26.959,20.748
		c-5.536,4.318-11.092,8.597-16.558,13.029c-9.634,7.897-19.104,16.135-28.539,24.417c-4.503,3.96-9.091,7.717-13.568,11.768
		c-13.746,12.466-27.339,25.314-40.616,38.592C233.52,1119.087,205.3,1755.364,552.024,2191.289l616.982-616.983
		c-25.071,2.387-50.896,3.061-77.342,1.305c-49.845-3.286-96.737-13.906-138.948-30.288
		c-70.394-27.286-127.594-70.604-163.155-122.63c67.311-75.069,186.682-120.749,319.52-112.02
		c6.956,0.473,13.883,1.103,20.731,1.848l-18.008-18.05l-18.095-18.047c-10.214-3.262-20.429-7.2-30.643-11.431
		c-51.757-21.401-102.635-54.771-147.577-99.709c-82.094-82.068-126.174-183.781-127.817-274.692
		c-0.267-13.009,0.384-25.789,1.888-38.257c99.689-12.062,219.136,32.111,312.925,125.903
		c53.808,53.804,91.272,116.094,111.148,178.247l36.111,36.094c-0.717-6.839-1.397-13.726-1.835-20.725
		c-8.744-132.812,36.945-252.21,112.014-319.52c83.259,56.889,144.149,169.267,152.904,302.078
		c1.735,26.489,1.103,52.298-1.305,77.412L2112.375,631c-198.795-158.105-439.215-237.944-680.169-240.15
		c-12.018-0.086-24.033-0.042-36.054,0.225C1390.344,391.208,1384.54,391.388,1378.737,391.615z"/>
	<path fill="#F99F3D" d="M789.561,1422.693c35.562,52.026,92.761,95.344,163.155,122.63
		C882.322,1518.015,825.123,1474.72,789.561,1422.693z"/>
	<path fill="#F99F3D" d="M2094.771,2037.641l-89.517-89.517c39.16-66.7,60.156-153.607,53.987-247.306
		c-8.757-132.811-69.663-245.181-152.904-302.02c-75.096,67.281-120.756,186.623-112.019,319.482
		c0.466,6.976,1.122,13.906,1.816,20.746l-58.077-58.102c39.175-66.744,60.128-153.634,53.94-247.295
		c-0.831-12.915-2.584-25.474-4.388-37.959l-227.323,227.378l534.483,534.533
		C2127.898,2124.455,2127.898,2070.719,2094.771,2037.641z"/>
	<path fill="#F99F3D" d="M1512.828,1154.414c-8.755-132.811-69.645-245.189-152.904-302.078
		c-75.069,67.309-120.758,186.708-112.014,319.52c0.438,6.999,1.118,13.886,1.835,20.725l-36.111-36.094
		c-19.876-62.152-57.34-124.442-111.148-178.247c-93.789-93.792-213.236-137.965-312.925-125.903
		c-1.503,12.468-2.155,25.248-1.888,38.257c-0.267-13.009,0.384-25.766,1.888-38.232l550.716,550.711l171.247-171.247
		C1513.931,1206.712,1514.563,1180.902,1512.828,1154.414z"/>
	<path fill="#F99F3D" d="M1336.027,1969.097L1336.027,1969.097c67.256-75.024,186.659-120.702,319.492-111.974
		C1522.661,1848.346,1403.264,1894.024,1336.027,1969.097z"/>
	<path fill="#F99F3D" d="M1672.847,2123.063c-11.479,0.088-23.063-0.273-34.791-1.037c-24.775-1.623-48.54-5.625-71.653-10.666
		c23.113,5.041,46.86,9.043,71.626,10.666C1649.784,2122.789,1661.345,2123.15,1672.847,2123.063z"/>
	<path fill="#F99F3D" d="M1109.081,1310.721c7,0.452,13.883,1.078,20.75,1.846l-0.019-0.045c-6.849-0.745-13.775-1.375-20.731-1.848
		c-132.838-8.729-252.209,36.951-319.52,112.02C856.872,1347.624,976.294,1301.966,1109.081,1310.721z"/>
	<path fill="#F99F3D" d="M1063.067,1264.994c10.214,4.231,20.429,8.169,30.643,11.431l18.095,18.047l-18.044-18.047
		C1083.496,1273.163,1073.281,1269.225,1063.067,1264.994z"/>
	<path fill="#FFC855" d="M1332.875,1850.417c12.508,1.798,25.07,3.555,37.98,4.41c23.406,1.533,46.407,1.35,68.772-0.36
		c67.035-5.133,128.448-24.214,178.514-53.603l58.104,58.106c-6.841-0.766-13.752-1.398-20.727-1.847
		c-132.833-8.728-252.236,36.95-319.492,111.974l0,0c46.215,67.732,129.517,120.163,230.375,142.263
		c23.113,5.041,46.878,9.043,71.653,10.666c11.729,0.764,23.313,1.125,34.791,1.037c80.265-0.408,154.078-20.702,212.521-55.001
		l89.515,89.52c16.51,16.563,38.226,24.841,59.94,24.841c21.714,0,43.392-8.277,59.949-24.841l-534.483-534.533l-118.094,118.049
		v0.043L1332.875,1850.417z"/>
	<path fill="#FFC855" d="M787.673,890.593c1.643,90.911,45.723,192.624,127.817,274.692c44.941,44.938,95.819,78.308,147.577,99.709
		c10.214,4.231,20.429,8.169,30.693,11.431l18.044,18.047l18.008,18.05l0.019,0.045c-6.868-0.768-13.75-1.395-20.75-1.846
		c-132.787-8.754-252.209,36.903-319.52,111.973c35.562,52.026,92.761,95.322,163.155,122.63
		c42.21,16.381,89.103,27.002,138.948,30.288c26.446,1.756,52.271,1.082,77.342-1.305l171.271-171.233L789.561,852.361
		C788.058,864.827,787.406,877.583,787.673,890.593z"/>
	<path fill="#EF476E" d="M2465.619,497.692c-565.246-565.223-1481.677-565.223-2046.88,0
		C701.354,215.104,1071.756,73.805,1442.194,73.828v316.956c-3.33-0.069-6.685,0.109-9.988,0.065
		c240.955,2.207,481.375,82.045,680.169,240.15l-600.852,600.826l-171.247,171.247l-171.271,171.233l-616.982,616.983
		l890.169-890.111v439.919l118.094-118.049l227.323-227.378l544.749-544.706c346.7,435.993,318.484,1072.223-84.815,1475.565
		c-224.374,224.357-520.805,332.46-814.803,324.674c3.146,0.092,6.297,0.313,9.452,0.357v316.881
		c-370.438,0-740.84-141.219-1023.455-423.858c565.203,565.275,1481.634,565.275,2046.88,0
		C3030.866,1979.358,3030.866,1062.919,2465.619,497.692z"/>
	<path fill="#F173AC" d="M1442.194,2651.561c-3.155-0.045-6.306-0.266-9.452-0.357c-7.427-0.183-14.851-0.543-22.276-0.856
		c-8.375-0.357-16.679-0.854-24.981-1.439c-7.428-0.498-14.83-1.075-22.231-1.707c-8.373-0.771-16.721-1.668-25.069-2.574
		c-7.288-0.851-14.626-1.665-21.918-2.609c-8.548-1.123-17.08-2.427-25.561-3.778c-7.068-1.078-14.084-2.111-21.135-3.328
		c-9.065-1.622-18.113-3.463-27.162-5.268c-6.433-1.31-12.849-2.434-19.236-3.868c-11.836-2.608-23.652-5.49-35.444-8.505
		c-5.06-1.305-10.151-2.525-15.209-3.919c-13.457-3.599-26.867-7.426-40.234-11.609c-5.763-1.757-11.475-3.786-17.239-5.671
		c-9.355-3.055-18.677-6.122-27.994-9.45c-6.344-2.296-12.688-4.774-18.992-7.158c-8.599-3.28-17.237-6.565-25.786-10.035
		c-6.459-2.657-12.916-5.446-19.36-8.189c-8.276-3.602-16.554-7.245-24.791-10.981c-6.483-3.016-12.921-6.075-19.305-9.184
		c-8.199-3.915-16.258-7.965-24.327-12.105c-6.329-3.244-12.586-6.526-18.862-9.897c-8.167-4.415-16.22-8.913-24.275-13.554
		c-6.036-3.466-12.071-6.884-18.046-10.438c-8.328-4.996-16.521-10.171-24.737-15.349c-5.555-3.512-11.185-6.974-16.674-10.62
		c-8.996-5.938-17.908-12.152-26.774-18.361c-4.553-3.198-9.141-6.259-13.682-9.588c-13.327-9.63-26.492-19.533-39.469-29.884
		l560.903-560.86l109.319-109.276v-0.043v-439.919l-890.169,890.111C205.3,1755.364,233.52,1119.087,636.816,715.791
		c13.277-13.278,26.87-26.126,40.616-38.592c4.477-4.05,9.064-7.808,13.568-11.768c9.435-8.282,18.905-16.52,28.539-24.417
		c5.466-4.432,11.021-8.71,16.558-13.029c8.912-7.021,17.87-14.041,26.959-20.748c5.895-4.39,11.878-8.574,17.869-12.805
		c8.911-6.323,17.869-12.579,26.909-18.61c6.169-4.095,12.42-8.101,18.727-12.083c9.067-5.783,18.185-11.409,27.384-16.922
		c6.299-3.758,12.649-7.496,19.014-11.095c9.408-5.356,18.86-10.53,28.332-15.548c6.322-3.355,12.647-6.729,18.99-9.948
		c9.922-4.996,19.874-9.786,29.86-14.469c6.105-2.857,12.154-5.76,18.274-8.506c10.805-4.814,21.649-9.337,32.547-13.79
		c5.44-2.229,10.882-4.596,16.379-6.733c12.774-5.015,25.7-9.63,38.64-14.151c3.663-1.283,7.287-2.68,10.976-3.941
		c33.845-11.383,68.139-21.085,102.766-29.116c3.424-0.811,6.937-1.461,10.405-2.208c13.681-3.057,27.402-5.938,41.197-8.461
		c4.976-0.896,9.975-1.665,14.97-2.496c12.333-2.071,24.683-4.03,37.06-5.694c5.627-0.763,11.25-1.37,16.854-2.025
		c11.884-1.44,23.739-2.699,35.644-3.735c5.806-0.516,11.616-0.922,17.463-1.304c11.816-0.855,23.609-1.529,35.424-1.98
		c5.802-0.227,11.607-0.407,17.414-0.542c12.021-0.267,24.036-0.311,36.054-0.225c3.304,0.044,6.658-0.134,9.988-0.065V73.828
		c-370.438-0.023-740.84,141.275-1023.455,423.864c-565.247,565.227-565.247,1481.666,0,2046.891
		c282.615,282.64,653.017,423.858,1023.455,423.858V2651.561z"/>
</g>
</svg>
