<?xml version="1.0" encoding="utf-8"?>
<!-- Generator: Adobe Illustrator 16.0.0, SVG Export Plug-In . SVG Version: 6.00 Build 0)  -->
<!DOCTYPE svg PUBLIC "-//W3C//DTD SVG 1.1//EN" "http://www.w3.org/Graphics/SVG/1.1/DTD/svg11.dtd">
<svg version="1.1" id="Calque_1" xmlns="http://www.w3.org/2000/svg" xmlns:xlink="http://www.w3.org/1999/xlink" x="0px" y="0px"
	 width="2902.68px" height="3872.13px" viewBox="0 0 2902.68 3872.13" enable-background="new 0 0 2902.68 3872.13"
	 xml:space="preserve">
<g>
	<path d="M2806.556,1141.576c-241.555-632.627-889.604-1019.779-1559.507-929.429C511.186,311.335,87.058,892.206,10.481,1372.844
		c4.597-15.618,9.222-31.231,13.843-46.8c197.026-666.26,853.988-1094.042,1537.357-985.54
		c545.542,86.613,928.369,396.403,1111.308,917.442c182.909,520.893,72.815,996.746-292.264,1411.818
		c-43.036,48.957-43.897,59.426,3.238,112.402C2816.174,2436.127,3047.271,1771.998,2806.556,1141.576z"/>
	<path d="M2241.378,1739.998c-3.9,0.543-7.755,0.996-11.669,1.492c-26.72-97.311-53.551-194.665-80.092-291.233
		c-36.391,0-68.656,0-102.795,0c0,183.231,0,363.437,0,545.182c24.136,0,44.945,0,73.471,0c0-123.005,0-243.837,0-364.717
		c37.831,101.254,65.229,202.827,92.665,304.394c19.565,72.518,19.69,72.563,100.006,56.157c0-179.982,0-360.187,0-541.2
		c-24.2,0-44.913,0-71.586,0C2241.378,1548.46,2241.378,1644.271,2241.378,1739.998z"/>
	<path d="M1621.896,1066.455c-31.003-72.274-50.629-145.13-70.343-217.919c-22.347-82.508-22.441-82.508-109.751-75.121
		c-3.014,0.247-5.916,2.198-16.405,6.411c0,161.85-0.068,323.272,0.041,484.623c0.048,63.112,4.74,66.422,75.171,48.63
		c0-118.111,0-238.038,0-357.945c38.344,100.324,65.946,201.559,93.507,302.834c19.604,71.86,25.286,75.145,99.301,56.494
		c0-178.69,0-357.693,0-539.102c-23.232,0-43.507,0-71.521,0C1621.896,874.374,1621.896,970.413,1621.896,1066.455z"/>
	<path d="M1613.957,1727.715c50.917-57.474,65.037-176.221,29.605-232.962c-30.31-48.399-139.331-66.708-233.061-39.469
		c0,180.198,0,360.131,0,539.521c27.424,0,49.792,0,77.556,0c0-74.645,0-146.301,0-216.828c67.41-11.872,88.358,3.99,90.323,64.452
		c0.888,27.967,0.161,56.018,0.321,83.984c0.544,77.094,5.162,80.678,87.401,64.269
		C1648.728,1903.888,1694.956,1806.078,1613.957,1727.715z M1566.757,1671.193c-3.141,14.461-43.53,20.806-75.987,34.763
		c0-71.11,0-124.23,0-190.174c30.394,10.333,72.206,14.547,75.082,27.417C1574.961,1584.4,1575.712,1630.041,1566.757,1671.193z"/>
	<path d="M762.512,1566.908c-3.446-79.406-47.432-122.501-123.635-125.199c-79.955-2.854-130.658,36.951-134.263,118.128
		c-4.755,108.415-4.779,217.325,0.055,325.69c3.663,81.09,54.451,120.833,134.469,117.887
		c76.26-2.805,119.927-45.863,123.39-125.409c2.22-50.991,0.415-102.067,0.415-153.101
		C762.943,1672.236,764.772,1619.485,762.512,1566.908z M678.751,1875.744c-0.199,30.316-13.056,52.39-46,52.253
		c-32.689-0.091-46.329-22.116-46.457-52.253c-0.496-102.166-0.496-204.275,0-306.346c0.128-30.139,13.823-52.168,46.497-52.304
		c32.905-0.093,45.762,21.937,45.961,52.304c0.359,51.082,0.136,102.115,0.136,153.148S679.111,1824.66,678.751,1875.744z"/>
	<path d="M1209.087,1441.689c-79.792,2.218-123.196,47.759-125.37,133.737c-1.27,49.359-0.225,98.76-0.225,148.119
		c0,49.404-1.184,98.85,0.271,148.166c2.544,85.159,47.163,130.482,127.354,131.796c81.137,1.268,129.175-41.194,132.217-126.448
		c3.579-101.935,3.354-204.138,0.197-306.117C1340.839,1483.284,1291.961,1439.375,1209.087,1441.689z M1212.116,1927.906
		c-33.263-0.723-44.231-24.11-44.344-53.933c-0.256-51.08-0.064-102.116-0.113-153.194c-0.047-49.359-0.175-98.808,0.049-148.208
		c0.088-32.09,11.938-56.43,47.95-55.387c32.724,0.952,44.778,24.112,44.869,53.937c0.341,100.526,0.358,200.968,0.093,301.402
		C1260.477,1904.522,1247.927,1928.633,1212.116,1927.906z"/>
	<path d="M1840.012,1446.694c-38.367-4.805-54.178,7.959-59.849,48.372c-19.073,136.746-42.811,272.756-64.38,409.137
		c-4.677,29.779-7.82,59.827-11.424,88.292c55.771,15.274,81.986,1.54,81.88-53.436c0-13.598,13.592-36.032,25.247-39.341
		c66.372-18.898,89.676-2.039,101.068,66.035c1.541,9.38,3.757,18.675,6.067,29.731c26.565,0,50.606,0,81.747,0
		c-29.711-185.33-58.556-364.943-87.975-548.288C1885.516,1447.197,1862.43,1449.507,1840.012,1446.694z M1803.005,1821.851
		c12.896-85.438,25.175-166.747,37.431-248.055c4.045,0.091,8.081,0.228,12.063,0.364c12.097,81.265,24.223,162.486,36.896,247.691
		C1856.33,1821.851,1832.417,1821.851,1803.005,1821.851z"/>
	<path d="M1309.909,874.846c-18.111-113.851-17.79-113.919-140.892-97.966c-28.595,178.191-57.422,357.945-86.229,537.427
		c70.161,16.518,76.892,15.635,82.194-49.222c4.33-52.689,36.67-43.151,68.848-44.938c31.954-1.768,52.076,3.558,56.377,42.531
		c7.436,67.126,16.957,71.023,87.822,50.382c-1.4-14.03-2.065-28.693-4.351-43.06
		C1352.573,1138.267,1330.87,1006.604,1309.909,874.846z M1184.425,1145.022c12.735-86.026,24.887-167.974,37.03-249.846
		c3.677-0.204,7.411-0.364,11.13-0.592c12.479,81.745,24.974,163.417,38.236,250.438
		C1242.4,1145.022,1217.737,1145.022,1184.425,1145.022z"/>
	<path d="M892.854,940.681c-12.135-21.438-4.709-56.291,0.688-83.759c1.492-7.479,36.846-18.108,40.923-13.483
		c16.774,19.079,27.446,43.486,40.39,65.924c0.791,1.359,1.63,2.718,3.892,6.503c20.826,0,43.149,0,65.044,0
		c13.231-82.604-24.616-139.098-98.133-149.659c-80.04-11.487-136.802,30.027-147.162,108.935
		c-7.996,60.938,10.088,114.258,52.258,158.7c24.926,26.247,56.02,47.863,76.126,77.212c18.513,26.966,31.385,60.755,35.798,93
		c1.84,13.439-22.087,39.071-38.998,44.418c-27.596,8.726-46.137-10.561-50.172-39.812c-2.127-15.642-2.951-31.459-4.398-47.729
		c-25.742,0-46.729,0-73.989,0c0,20.103-0.887,34.785,0.111,49.333c4.94,71.952,46.059,113.244,115.49,116.71
		c78.634,3.896,125.132-30.979,136.717-104.497c11.51-73.174-17.245-131.162-68.42-181.793
		C947.683,1009.687,914.16,978.275,892.854,940.681z"/>
	<path d="M1881.345,988.269c-18.966-25.379-37.367-55.635-41.845-85.842c-2.75-18.13,17.443-51.897,34.776-58.216
		c32.994-12.104,49.878,13.415,52.373,46.637c0.567,7.838,3.263,15.521,5.396,25.204c22.641,0,43.369,0,67.458,0
		c11.649-88.86-27.522-143.388-104.688-150.591c-83.032-7.75-135.253,37.979-140.623,121.418
		c-3.847,59.715,15.868,109.894,57.295,151.997c25.328,25.787,56.379,47.588,75.797,77.208
		c17.813,27.126,28.67,61.798,31.757,94.159c1.101,11.896-27.669,35.305-44.764,37.439c-12.823,1.587-32.561-20.215-42.267-35.92
		c-7.635-12.487-4.573-31.499-6.563-50.058c-24.345,0-46.355,0-73.001,0c0,20.189-1.654,37.911,0.298,55.246
		c8.25,73.631,50.67,110.365,125.642,110.206c74.779-0.136,116.795-37.551,125.268-111.022
		c6.795-59.012-8.473-111.089-49.36-154.462C1930.615,1036.563,1901.88,1015.599,1881.345,988.269z"/>
	<path d="M327.447,1519.816c14.82-0.228,35.854,23.112,43.45,40.7c8.448,19.579,4.823,44.37,6.411,66.035
		c76.916,9.61,81.402,5.26,74.014-66.987c-0.632-6.571-1.497-13.103-2.631-19.626c-11.695-65.583-55.793-99.632-127.065-98.249
		c-68.778,1.339-116.778,35.296-119.448,99.833c-5.011,119.974-4.492,240.445-0.388,360.554
		c1.972,58.786,40.973,91.415,98.601,99.437c96.408,13.374,149.14-34.758,152.338-139.054c2.175-71.88,1.72-72.289-80.138-63.404
		c0,29.777,5.42,59.013-1.902,84.528c-4.941,17.316-27.869,40.838-42.763,40.838c-15.566,0-44.147-24.382-44.643-38.846
		c-3.804-108.593-3.829-217.459-0.022-326.102C283.755,1544.699,311.858,1520.04,327.447,1519.816z"/>
	<path d="M2532.669,1995.261c0-157.637,0-312.731,0-470.052c33.784-1.859,60.688-3.31,87.356-4.713c0-26.334,0-47.093,0-70.536
		c-87.418,0-172.035,0-258.854,0c0,24.623,0,46.512,0,70.764c30.003,1.811,56.854,3.44,88.244,5.392c0,159.221,0,313.091,0,469.146
		C2478.163,1995.261,2501.962,1995.261,2532.669,1995.261z"/>
	<path d="M903.967,1449.848c-29.733,0-52.083,0-77.593,0c0,182.596,0,362.578,0,545.143c74.556,0,145.977,0,219.32,0
		c0-24.841,0-46.686,0-73.785c-47.135,0-90.827,0-141.727,0C903.967,1760.931,903.967,1605.746,903.967,1449.848z"/>
	<path fill="#FFFFFF" d="M1490.77,1515.782c0,65.944,0,119.064,0,190.174c32.457-13.957,72.847-20.302,75.987-34.763
		c8.955-41.153,8.204-86.793-0.905-127.994C1562.976,1530.329,1521.163,1526.115,1490.77,1515.782z"/>
	<path fill="#FFFFFF" d="M632.791,1517.094c-32.673,0.136-46.369,22.165-46.497,52.304c-0.496,102.071-0.496,204.181,0,306.346
		c0.128,30.137,13.768,52.162,46.457,52.253c32.945,0.137,45.801-21.937,46-52.253c0.359-51.084,0.136-102.166,0.136-153.198
		s0.223-102.066-0.136-153.148C678.552,1539.031,665.696,1517.001,632.791,1517.094z"/>
	<path fill="#FFFFFF" d="M1215.658,1517.185c-36.013-1.043-47.862,23.296-47.95,55.387c-0.224,49.399-0.096,98.849-0.049,148.208
		c0.049,51.078-0.144,102.114,0.113,153.194c0.112,29.823,11.081,53.209,44.344,53.933c35.811,0.727,48.361-23.383,48.504-55.381
		c0.266-100.435,0.249-200.876-0.093-301.402C1260.437,1541.297,1248.382,1518.137,1215.658,1517.185z"/>
	<path fill="#FFFFFF" d="M1840.436,1573.795c-12.256,81.308-24.534,162.617-37.431,248.055c29.412,0,53.325,0,86.39,0
		c-12.673-85.206-24.799-166.426-36.896-247.691C1848.517,1574.023,1844.48,1573.887,1840.436,1573.795z"/>
	<path fill="#FFFFFF" d="M1221.455,895.176c-12.144,81.873-24.295,163.82-37.03,249.846c33.312,0,57.976,0,86.396,0
		c-13.263-87.022-25.758-168.693-38.236-250.438C1228.866,894.812,1225.132,894.972,1221.455,895.176z"/>
</g>
</svg>
