<?xml version="1.0" encoding="utf-8"?>
<!-- Generator: Adobe Illustrator 16.0.0, SVG Export Plug-In . SVG Version: 6.00 Build 0)  -->
<!DOCTYPE svg PUBLIC "-//W3C//DTD SVG 1.0//EN" "http://www.w3.org/TR/2001/REC-SVG-20010904/DTD/svg10.dtd">
<svg version="1.0" id="Calque_1" xmlns="http://www.w3.org/2000/svg" xmlns:xlink="http://www.w3.org/1999/xlink" x="0px" y="0px"
	 width="84px" height="84px" viewBox="0 0 84 84" enable-background="new 0 0 84 84" xml:space="preserve">
<g>
	<path fill="#D63451" d="M77.978,20.548c-3.712-6.36-8.749-11.396-15.11-15.109c-6.36-3.71-13.306-5.566-20.837-5.566
		c-7.533,0-14.479,1.856-20.84,5.566C14.829,9.152,9.794,14.188,6.081,20.548c-3.712,6.363-5.567,13.309-5.567,20.839
		c0,7.534,1.856,14.479,5.567,20.839c3.713,6.359,8.748,11.398,15.108,15.108c6.361,3.714,13.308,5.57,20.839,5.57
		c7.532,0,14.479-1.856,20.839-5.57c6.361-3.71,11.396-8.749,15.108-15.108c3.714-6.359,5.567-13.305,5.567-20.839
		C83.543,33.856,81.689,26.907,77.978,20.548z M69.004,49.009l-5.514,5.516c-0.686,0.684-1.496,1.026-2.433,1.026
		c-0.938,0-1.75-0.343-2.433-1.026L42.028,37.928L25.435,54.524c-0.687,0.684-1.495,1.026-2.433,1.026
		c-0.938,0-1.748-0.343-2.433-1.026l-5.514-5.516c-0.686-0.684-1.029-1.495-1.029-2.433c0-0.935,0.344-1.747,1.029-2.433
		l24.541-24.54c0.685-0.687,1.497-1.029,2.434-1.029c0.936,0,1.748,0.343,2.431,1.029l24.543,24.54
		c0.683,0.686,1.026,1.498,1.026,2.433C70.03,47.514,69.688,48.325,69.004,49.009z"/>
</g>
</svg>
