<?xml version="1.0" encoding="utf-8"?>
<!-- Generator: Adobe Illustrator 16.0.0, SVG Export Plug-In . SVG Version: 6.00 Build 0)  -->
<!DOCTYPE svg PUBLIC "-//W3C//DTD SVG 1.1//EN" "http://www.w3.org/Graphics/SVG/1.1/DTD/svg11.dtd">
<svg version="1.1" id="Calque_1" xmlns="http://www.w3.org/2000/svg" xmlns:xlink="http://www.w3.org/1999/xlink" x="0px" y="0px"
	 width="85px" height="85px" viewBox="0 0 85 85" enable-background="new 0 0 85 85" xml:space="preserve">
<g>
	<path fill="#D73552" d="M77.464,21.548c-3.712-6.36-8.749-11.396-15.11-15.109c-6.36-3.71-13.306-5.566-20.837-5.566
		c-7.533,0-14.479,1.856-20.84,5.566C14.315,10.152,9.28,15.188,5.567,21.548C1.855,27.911,0,34.856,0,42.387
		c0,7.534,1.856,14.479,5.567,20.839c3.713,6.359,8.748,11.398,15.108,15.108c6.361,3.714,13.308,5.57,20.839,5.57
		c7.532,0,14.479-1.856,20.839-5.57c6.361-3.71,11.396-8.749,15.108-15.108c3.714-6.359,5.567-13.305,5.567-20.839
		C83.029,34.856,81.176,27.907,77.464,21.548z M68.49,50.009l-5.514,5.516c-0.686,0.684-1.496,1.026-2.433,1.026
		c-0.938,0-1.75-0.343-2.433-1.026L41.515,38.928L24.921,55.524c-0.687,0.684-1.495,1.026-2.433,1.026
		c-0.938,0-1.748-0.343-2.433-1.026l-5.514-5.516c-0.686-0.684-1.029-1.495-1.029-2.433c0-0.935,0.344-1.747,1.029-2.433
		l24.541-24.54c0.685-0.687,1.497-1.029,2.434-1.029c0.936,0,1.748,0.343,2.431,1.029l24.543,24.54
		c0.683,0.686,1.026,1.498,1.026,2.433C69.517,48.514,69.175,49.325,68.49,50.009z"/>
</g>
</svg>
