<?xml version="1.0" encoding="utf-8"?>
<!-- Generator: Adobe Illustrator 16.0.0, SVG Export Plug-In . SVG Version: 6.00 Build 0)  -->
<!DOCTYPE svg PUBLIC "-//W3C//DTD SVG 1.1//EN" "http://www.w3.org/Graphics/SVG/1.1/DTD/svg11.dtd">
<svg version="1.1" id="Calque_1" xmlns="http://www.w3.org/2000/svg" xmlns:xlink="http://www.w3.org/1999/xlink" x="0px" y="0px"
	 width="2902.68px" height="3872.13px" viewBox="0 0 2902.68 3872.13" enable-background="new 0 0 2902.68 3872.13"
	 xml:space="preserve">
<g>
	<path fill="#F1F0F0" d="M255.659,2414.651c-4.649-6.642-9.252-13.374-13.74-20.062
		C246.407,2401.277,251.01,2408.01,255.659,2414.651z"/>
	<path fill="#F1F0F0" d="M217.943,2357.443c-3.343-5.312-6.78-10.53-10.032-15.847
		C211.163,2346.913,214.6,2352.132,217.943,2357.443z"/>
	<path fill="#F1F0F0" d="M2359.992,478.874c4.947,3.962,9.986,7.831,14.842,11.814
		C2369.979,486.705,2364.939,482.836,2359.992,478.874z"/>
	<path fill="#F1F0F0" d="M2420.816,530.263c5.038,4.513,9.938,9.182,14.885,13.718
		C2430.754,539.445,2425.9,534.776,2420.816,530.263z"/>
	<path fill="#F1F0F0" d="M293.191,2466.359c-4.854-6.365-9.527-12.871-14.242-19.277
		C283.664,2453.488,288.338,2459.994,293.191,2466.359z"/>
	<path fill="#F1F0F0" d="M2305.674,437.333c6.64,4.786,13.236,9.594,19.648,14.494
		C2318.91,446.927,2312.313,442.119,2305.674,437.333z"/>
	<path fill="#F1F0F0" d="M388.32,2578.57c-5.633-5.996-11.335-11.999-16.877-18.137
		C376.984,2566.571,382.687,2572.574,388.32,2578.57z"/>
	<path fill="#F1F0F0" d="M336.246,2520.082c-4.169-4.942-8.292-9.981-12.369-14.978
		C327.955,2510.101,332.032,2515.14,336.246,2520.082z"/>
	<path fill="#F1F0F0" d="M88.462,2094.822c-0.642-1.691-1.189-3.479-1.831-5.174C87.273,2091.344,87.82,2093.131,88.462,2094.822z"
		/>
	<path fill="#F1F0F0" d="M2197.904,365.839c4.352,2.61,8.613,5.335,12.964,8.016
		C2206.518,371.175,2202.256,368.449,2197.904,365.839z"/>
	<path fill="#F1F0F0" d="M67.485,2033.405c-2.105-6.596-4.074-13.282-6.067-19.925C63.412,2020.123,65.38,2026.81,67.485,2033.405z"
		/>
	<path fill="#F1F0F0" d="M119.882,2171.953c-2.839-6.46-5.726-12.914-8.495-19.418
		C114.156,2159.084,117.042,2165.493,119.882,2171.953z"/>
	<path fill="#F1F0F0" d="M177.179,2288.561c-3.022-5.538-5.862-11.131-8.816-16.669
		C171.317,2277.43,174.156,2283.022,177.179,2288.561z"/>
	<path fill="#F1F0F0" d="M147.774,2231.952c-3.41-6.822-6.731-13.788-10.029-20.749
		C141.043,2218.164,144.365,2225.086,147.774,2231.952z"/>
	<path fill="#F1F0F0" d="M2253.232,400.808c6.596,4.397,13.1,8.91,19.692,13.372
		C2266.332,409.717,2259.828,405.205,2253.232,400.808z"/>
	<path fill="#F1F0F0" d="M833.526,2901.562c-8.749-4.124-17.426-8.341-26.106-12.599
		C816.1,2893.221,824.777,2897.438,833.526,2901.562z"/>
	<path fill="#F1F0F0" d="M775.747,2872.845c-8.22-4.265-16.486-8.475-24.592-12.965
		C759.261,2864.37,767.526,2868.58,775.747,2872.845z"/>
	<path fill="#F1F0F0" d="M2566.875,681.544c2.109,2.471,4.125,5.034,6.18,7.58C2571,686.579,2568.984,684.016,2566.875,681.544z"/>
	<path fill="#F1F0F0" d="M49.029,1970.247c-1.879-7.054-3.756-14.106-5.542-21.253C45.272,1956.141,47.15,1963.193,49.029,1970.247z
		"/>
	<path fill="#F1F0F0" d="M891.578,2927.21c-8.312-3.44-16.511-7.147-24.754-10.766
		C875.067,2920.063,883.266,2923.77,891.578,2927.21z"/>
	<path fill="#F1F0F0" d="M2030.142,2917.586c-7.147,3.117-14.202,6.326-21.392,9.253
		C2015.939,2923.912,2022.994,2920.703,2030.142,2917.586z"/>
	<path fill="#F1F0F0" d="M2606.768,731.67c4.396,5.771,8.658,11.704,13.008,17.545
		C2615.426,743.374,2611.164,737.441,2606.768,731.67z"/>
	<path fill="#F1F0F0" d="M710.528,2836.703c-9.366-5.539-18.639-11.218-27.847-16.899
		C691.889,2825.485,701.14,2831.164,710.528,2836.703z"/>
	<path fill="#F1F0F0" d="M595.361,2761.179c-7.487-5.451-14.952-10.897-22.328-16.396
		C580.409,2750.281,587.874,2755.728,595.361,2761.179z"/>
	<path fill="#F1F0F0" d="M479.327,2667.791c-5.954-5.361-11.77-10.898-17.679-16.353
		C467.557,2656.893,473.326,2662.43,479.327,2667.791z"/>
	<path fill="#F1F0F0" d="M542.463,2720.874c-6.206-4.903-12.482-9.757-18.572-14.745
		C529.981,2711.164,536.258,2715.971,542.463,2720.874z"/>
	<path fill="#F1F0F0" d="M2466.801,573.475c5.774,5.585,11.406,11.222,16.99,16.879
		C2478.207,584.697,2472.575,579.06,2466.801,573.475z"/>
	<path fill="#F1F0F0" d="M2512.372,620.167c5.083,5.358,10.169,10.695,15.116,16.17
		C2522.541,630.862,2517.455,625.526,2512.372,620.167z"/>
	<path fill="#F1F0F0" d="M2436.754,2652.448c-5.449,4.994-10.763,10.121-16.254,15.068
		C2425.991,2662.569,2431.305,2657.442,2436.754,2652.448z"/>
	<path fill="#F1F0F0" d="M647.393,2797.361c-7.671-5.082-15.229-10.301-22.832-15.526
		C632.163,2787.061,639.721,2792.279,647.393,2797.361z"/>
	<path fill="#F1F0F0" d="M433.524,2624.787c-6.342-6.141-12.572-12.367-18.778-18.734
		C420.953,2612.42,427.183,2618.604,433.524,2624.787z"/>
	<path fill="#F1F0F0" d="M2.953,1686.466c-0.435-6.868-0.917-13.601-1.235-20.521C2.036,1672.865,2.518,1679.599,2.953,1686.466z"/>
	<path fill="#F1F0F0" d="M524.416,490.897c5.246-4.351,10.626-8.474,15.917-12.662C535.042,482.424,529.662,486.547,524.416,490.897
		z"/>
	<path fill="#F1F0F0" d="M573.814,452.083c6.73-5.109,13.6-10.057,20.425-15C587.415,442.026,580.545,446.973,573.814,452.083z"/>
	<path fill="#F1F0F0" d="M463.068,544.644c5.267-4.856,10.462-9.822,15.801-14.635C473.53,534.821,468.335,539.765,463.068,544.644z
		"/>
	<path fill="#F1F0F0" d="M371.786,636.564c5.175-5.724,10.444-11.241,15.711-16.85C382.23,625.323,376.961,630.84,371.786,636.564z"
		/>
	<path fill="#F1F0F0" d="M325.574,690.198c2.726-3.364,5.403-6.711,8.152-9.983C330.977,683.487,328.3,686.834,325.574,690.198z"/>
	<path fill="#F1F0F0" d="M415.391,590.695c5.791-5.904,11.608-11.7,17.492-17.47C426.999,578.996,421.182,584.791,415.391,590.695z"
		/>
	<path fill="#F1F0F0" d="M626.028,414.614c6.823-4.716,13.6-9.409,20.563-13.991C639.628,405.205,632.852,409.898,626.028,414.614z"
		/>
	<path fill="#F1F0F0" d="M279.451,749.604c4.443-6.072,8.864-12.162,13.422-18.091C288.315,737.441,283.894,743.532,279.451,749.604
		z"/>
	<path fill="#F1F0F0" d="M687.034,374.858c5.586-3.387,11.082-6.89,16.669-10.233C698.115,367.968,692.62,371.471,687.034,374.858z"
		/>
	<path fill="#F1F0F0" d="M32.267,1900.859c-1.099-5.175-2.361-10.349-3.414-15.435C29.906,1890.511,31.168,1895.685,32.267,1900.859
		z"/>
	<path fill="#F1F0F0" d="M2067.785,296.702c7.464,3.527,14.887,7.123,22.214,10.718
		C2082.628,303.824,2075.249,300.229,2067.785,296.702z"/>
	<path fill="#F1F0F0" d="M1449.75,159.527c-177.339,0-347.213,31.744-504.266,89.613v2699.183
		c157.053,57.846,326.927,89.584,504.266,89.584c177.343,0,347.218-31.738,504.271-89.584V249.14
		C1796.968,191.271,1627.093,159.527,1449.75,159.527z"/>
	<path fill="#F1F0F0" d="M752.115,337.029c7.077-3.892,14.245-7.581,21.388-11.31C766.359,329.448,759.191,333.137,752.115,337.029z
		"/>
	<path fill="#F1F0F0" d="M870.189,279.458c6.733-2.906,13.466-5.953,20.266-8.77C883.655,273.505,876.922,276.551,870.189,279.458z"
		/>
	<path fill="#F1F0F0" d="M809,307.624c7.671-3.684,15.342-7.442,23.082-11.038C824.342,300.181,816.671,303.939,809,307.624z"/>
	<path fill="#F1F0F0" d="M2009.254,270.757c6.502,2.702,12.823,5.585,19.234,8.358
		C2022.077,276.342,2015.756,273.459,2009.254,270.757z"/>
	<path fill="#F1F0F0" d="M1.717,1531.464c0.319-6.844,0.801-13.671,1.235-20.539C2.518,1517.793,2.036,1524.62,1.717,1531.464z"/>
	<path fill="#F1F0F0" d="M6.548,1463.725c0.71-7.349,1.397-14.675,2.176-21.937C7.946,1449.05,7.259,1456.375,6.548,1463.725z"/>
	<path fill="#F1F0F0" d="M15.16,1391.726c0.756-5.22,1.351-10.509,2.175-15.73C16.511,1381.217,15.916,1386.506,15.16,1391.726z"/>
	<path fill="#F1F0F0" d="M28.877,1311.967c1.028-5.063,2.243-10.057,3.319-15.138C31.121,1301.91,29.906,1306.904,28.877,1311.967z"
		/>
	<path fill="#F1F0F0" d="M17.334,1821.443c-0.824-5.268-1.442-10.581-2.199-15.847C15.893,1810.862,16.511,1816.176,17.334,1821.443
		z"/>
	<path fill="#F1F0F0" d="M2644.371,783.564c4.258,6.229,8.61,12.435,12.87,18.71
		C2652.981,795.999,2648.629,789.793,2644.371,783.564z"/>
	<path fill="#F1F0F0" d="M8.725,1755.627c-0.779-7.284-1.466-14.564-2.176-21.987C7.259,1741.063,7.946,1748.343,8.725,1755.627z"/>
	<path fill="#F1F0F0" d="M61.488,1183.702c1.969-6.549,3.892-13.055,5.954-19.535C65.38,1170.647,63.457,1177.153,61.488,1183.702z"
		/>
	<path fill="#F1F0F0" d="M168.752,924.833c2.772-5.244,5.451-10.509,8.313-15.707C174.203,914.324,171.524,919.59,168.752,924.833z"
		/>
	<path fill="#F1F0F0" d="M137.905,985.841c3.229-6.707,6.436-13.463,9.709-20.151C144.341,972.377,141.134,979.134,137.905,985.841z
		"/>
	<path fill="#F1F0F0" d="M208.05,855.585c3.021-4.924,6.204-9.732,9.275-14.657C214.254,845.853,211.071,850.661,208.05,855.585z"/>
	<path fill="#F1F0F0" d="M86.928,1106.961c0.435-1.167,0.804-2.357,1.216-3.481C87.731,1104.629,87.363,1105.793,86.928,1106.961z"
		/>
	<path fill="#F1F0F0" d="M111.478,1044.648c2.656-6.271,5.474-12.477,8.198-18.775
		C116.952,1032.172,114.156,1038.377,111.478,1044.648z"/>
	<path fill="#F1F0F0" d="M242.124,802.502c4.354-6.434,8.75-12.848,13.193-19.212C250.874,789.655,246.477,796.068,242.124,802.502z
		"/>
	<path fill="#F1F0F0" d="M2126.593,326.039c6.872,3.595,13.694,7.122,20.474,10.736
		C2140.287,333.161,2133.465,329.634,2126.593,326.039z"/>
	<path fill="#F1F0F0" d="M43.487,1248.305c1.785-7.03,3.64-14.019,5.495-20.98C47.127,1234.286,45.272,1241.274,43.487,1248.305z"/>
	<path fill="#F1F0F0" d="M2884.315,1805.638c-0.729,5.272-1.37,10.538-2.149,15.806
		C2882.945,1816.176,2883.587,1810.91,2884.315,1805.638z"/>
	<path fill="#F1F0F0" d="M2892.93,1733.731c-0.688,7.331-1.371,14.612-2.197,21.849
		C2891.559,1748.343,2892.241,1741.063,2892.93,1733.731z"/>
	<path fill="#F1F0F0" d="M2897.787,1665.945c-0.369,6.827-0.822,13.654-1.236,20.476
		C2896.965,1679.599,2897.418,1672.771,2897.787,1665.945z"/>
	<path fill="#F1F0F0" d="M2855.967,1949.086c-1.781,7.055-3.614,14.062-5.492,21.068
		C2852.353,1963.147,2854.229,1956.141,2855.967,1949.086z"/>
	<path fill="#F1F0F0" d="M2620.188,2447.58c-4.534,6.23-9.024,12.414-13.694,18.462
		C2611.164,2459.994,2615.654,2453.811,2620.188,2447.58z"/>
	<path fill="#F1F0F0" d="M2870.621,1885.425c-1.047,5.086-2.242,10.121-3.384,15.207
		C2868.379,1895.546,2869.574,1890.511,2870.621,1885.425z"/>
	<path fill="#F1F0F0" d="M2867.237,1297.009c1.142,4.971,2.337,9.94,3.341,14.958
		C2869.574,1306.95,2868.379,1301.98,2867.237,1297.009z"/>
	<path fill="#F1F0F0" d="M2882.166,1375.996c0.779,5.221,1.376,10.487,2.149,15.684
		C2883.542,1386.483,2882.945,1381.217,2882.166,1375.996z"/>
	<path fill="#F1F0F0" d="M2896.551,1510.971c0.414,6.845,0.867,13.649,1.236,20.493
		C2897.418,1524.62,2896.965,1517.816,2896.551,1510.971z"/>
	<path fill="#F1F0F0" d="M2890.732,1441.881c0.826,7.191,1.509,14.471,2.197,21.732
		C2892.241,1456.352,2891.559,1449.072,2890.732,1441.881z"/>
	<path fill="#F1F0F0" d="M2325.875,2745.193c-6.875,5.221-13.881,10.262-20.887,15.346
		C2311.994,2755.455,2319,2750.414,2325.875,2745.193z"/>
	<path fill="#F1F0F0" d="M2838.014,2013.621c-1.965,6.594-3.891,13.144-5.95,19.69
		C2834.123,2026.765,2836.049,2020.215,2838.014,2013.621z"/>
	<path fill="#F1F0F0" d="M2484.251,2606.558c-5.861,5.998-11.863,11.907-17.859,17.86
		C2472.388,2618.465,2478.39,2612.556,2484.251,2606.558z"/>
	<path fill="#F1F0F0" d="M2691.455,2341.738c-3.069,5.081-6.366,10.073-9.529,15.114
		C2685.089,2351.812,2688.386,2346.819,2691.455,2341.738z"/>
	<path fill="#F1F0F0" d="M2090.868,2889.605c-7.923,3.801-15.847,7.693-23.813,11.404
		C2075.021,2897.299,2082.945,2893.406,2090.868,2889.605z"/>
	<path fill="#F1F0F0" d="M2574.432,2506.574c-3.16,3.846-6.272,7.782-9.525,11.588
		C2568.159,2514.356,2571.271,2510.42,2574.432,2506.574z"/>
	<path fill="#F1F0F0" d="M2657.379,2394.821c-4.35,6.501-8.794,13.006-13.326,19.466
		C2648.585,2407.827,2653.029,2401.322,2657.379,2394.821z"/>
	<path fill="#F1F0F0" d="M2730.933,2272.303c-2.886,5.359-5.634,10.765-8.563,16.121
		C2725.299,2283.067,2728.047,2277.662,2730.933,2272.303z"/>
	<path fill="#F1F0F0" d="M2375.199,2706.449c-5.451,4.486-11.131,8.793-16.669,13.235
		C2364.068,2715.242,2369.748,2710.936,2375.199,2706.449z"/>
	<path fill="#F1F0F0" d="M2812.646,2090.154c-0.457,1.373-0.917,2.702-1.423,4.031
		C2811.729,2092.856,2812.188,2091.527,2812.646,2090.154z"/>
	<path fill="#F1F0F0" d="M2527.765,2560.801c-5.271,5.723-10.674,11.406-15.989,17.133
		C2517.091,2572.207,2522.493,2566.523,2527.765,2560.801z"/>
	<path fill="#F1F0F0" d="M2788,2152.58c-2.656,6.459-5.539,12.825-8.289,19.142C2782.551,2165.405,2785.344,2159.039,2788,2152.58z"
		/>
	<path fill="#F1F0F0" d="M2761.575,2211.436c-3.164,6.776-6.455,13.604-9.757,20.377
		C2755.12,2225.039,2758.368,2218.212,2761.575,2211.436z"/>
	<path fill="#F1F0F0" d="M2811.357,1103.55c0.322,0.938,0.689,1.924,1.008,2.841
		C2812.047,1105.452,2811.68,1104.489,2811.357,1103.55z"/>
	<path fill="#F1F0F0" d="M2273.797,2782.616c-7.008,4.808-14.014,9.616-21.067,14.332
		C2259.783,2792.232,2266.744,2787.424,2273.797,2782.616z"/>
	<path fill="#F1F0F0" d="M2779.85,1026.077c2.743,6.183,5.494,12.301,8.105,18.484
		C2785.344,1038.377,2782.593,1032.259,2779.85,1026.077z"/>
	<path fill="#F1F0F0" d="M2213.524,2821.866c-6.507,4.03-13.009,8.063-19.606,12
		C2200.56,2829.929,2207.018,2825.896,2213.524,2821.866z"/>
	<path fill="#F1F0F0" d="M2682.479,841.408c2.927,4.717,5.95,9.323,8.838,14.015
		C2688.429,850.731,2685.405,846.125,2682.479,841.408z"/>
	<path fill="#F1F0F0" d="M2751.912,965.852c3.208,6.596,6.456,13.214,9.569,19.878
		C2758.368,979.065,2755.12,972.447,2751.912,965.852z"/>
	<path fill="#F1F0F0" d="M2147.618,2860.34c-7.378,4.03-14.796,7.783-22.171,11.674
		C2132.822,2868.123,2140.24,2864.37,2147.618,2860.34z"/>
	<path fill="#F1F0F0" d="M2722.457,909.242c2.799,5.035,5.36,10.097,8.109,15.179
		C2727.817,919.339,2725.256,914.277,2722.457,909.242z"/>
	<path fill="#F1F0F0" d="M2850.521,1227.418c1.832,6.891,3.665,13.833,5.446,20.794
		C2854.186,1241.252,2852.353,1234.31,2850.521,1227.418z"/>
	<path fill="#F1F0F0" d="M2832.105,1164.236c2.018,6.411,3.896,12.871,5.864,19.303
		C2836.001,1177.107,2834.123,1170.647,2832.105,1164.236z"/>
	<path fill="#D81F2A" d="M2511.775,2577.934c5.315-5.727,10.718-11.41,15.989-17.133c12.637-14.014,25.049-28.166,37.142-42.639
		c3.253-3.806,6.365-7.742,9.525-11.588c10.902-13.284,21.617-26.838,32.063-40.532c4.67-6.048,9.16-12.231,13.694-18.462
		c8.149-10.99,16.03-22.074,23.864-33.293c4.532-6.46,8.977-12.965,13.326-19.466c8.427-12.553,16.533-25.237,24.547-37.969
		c3.163-5.041,6.46-10.033,9.529-15.114c10.667-17.499,20.974-35.312,30.915-53.314c2.929-5.356,5.677-10.762,8.563-16.121
		c7.099-13.42,14.104-26.885,20.886-40.49c3.302-6.773,6.593-13.601,9.757-20.377c6.275-13.194,12.317-26.385,18.136-39.714
		c2.75-6.316,5.633-12.683,8.289-19.142c8.11-19.236,15.987-38.703,23.223-58.395c0.506-1.329,0.966-2.658,1.423-4.031
		c6.868-18.78,13.323-37.743,19.418-56.843c2.06-6.547,3.985-13.097,5.95-19.69c4.353-14.38,8.477-28.854,12.461-43.467
		c1.878-7.007,3.711-14.014,5.492-21.068c4.077-16.031,7.788-32.195,11.271-48.454c1.142-5.086,2.337-10.121,3.384-15.207
		c4.311-21.159,8.111-42.458,11.545-63.981c0.779-5.268,1.421-10.534,2.149-15.806c2.431-16.578,4.586-33.293,6.417-50.058
		c0.826-7.237,1.509-14.518,2.197-21.849c1.468-15.707,2.61-31.465,3.621-47.311c0.414-6.822,0.867-13.649,1.236-20.476
		c1.009-22.302,1.693-44.655,1.693-67.267c0-22.534-0.685-44.906-1.693-67.213c-0.369-6.844-0.822-13.648-1.236-20.493
		c-1.011-15.827-2.153-31.604-3.621-47.358c-0.688-7.262-1.371-14.541-2.197-21.732c-1.831-16.833-3.986-33.572-6.417-50.201
		c-0.773-5.197-1.37-10.463-2.149-15.684c-3.434-21.525-7.234-42.846-11.588-64.029c-1.004-5.018-2.199-9.987-3.341-14.958
		c-3.433-16.351-7.193-32.632-11.271-48.797c-1.781-6.96-3.614-13.903-5.446-20.794c-4.03-14.727-8.154-29.338-12.551-43.879
		c-1.969-6.432-3.847-12.892-5.864-19.303c-6.184-19.42-12.732-38.75-19.74-57.845c-0.318-0.917-0.686-1.902-1.008-2.841
		c-7.324-19.877-15.247-39.528-23.402-58.989c-2.611-6.184-5.362-12.302-8.105-18.484c-5.912-13.533-12.048-27-18.368-40.347
		c-3.113-6.664-6.361-13.282-9.569-19.878c-6.875-13.925-14.018-27.712-21.346-41.43c-2.749-5.082-5.311-10.144-8.109-15.179
		c-9.981-18.16-20.377-36.141-31.141-53.819c-2.888-4.692-5.911-9.298-8.838-14.015c-8.204-13.144-16.624-26.221-25.237-39.133
		c-4.26-6.276-8.612-12.481-12.87-18.71c-8.018-11.565-16.26-23.039-24.596-34.35c-4.35-5.841-8.611-11.773-13.008-17.545
		c-10.99-14.38-22.256-28.625-33.713-42.546c-2.055-2.545-4.07-5.108-6.18-7.58c-12.779-15.393-26.016-30.392-39.387-45.207
		c-4.947-5.475-10.033-10.812-15.116-16.17c-9.388-10.099-18.917-19.989-28.581-29.813c-5.584-5.657-11.216-11.294-16.99-16.879
		c-10.169-9.983-20.567-19.761-31.1-29.494c-4.947-4.537-9.847-9.206-14.885-13.718c-15.023-13.49-30.368-26.681-45.982-39.575
		c-4.855-3.983-9.895-7.853-14.842-11.814c-11.449-9.159-22.901-18.229-34.67-27.047c-6.412-4.9-13.009-9.708-19.648-14.494
		c-10.763-7.854-21.756-15.549-32.749-23.153c-6.593-4.462-13.097-8.974-19.692-13.372c-13.926-9.228-28.078-18.136-42.364-26.952
		c-4.351-2.681-8.612-5.406-12.964-8.016c-16.762-10.034-33.711-19.674-50.838-29.064c-6.779-3.614-13.602-7.141-20.474-10.736
		c-12.09-6.346-24.227-12.599-36.594-18.619c-7.327-3.596-14.75-7.191-22.214-10.718c-13.006-6.02-26.107-11.862-39.297-17.586
		c-6.411-2.773-12.732-5.656-19.234-8.358c-18.229-7.581-36.595-14.884-55.232-21.756v0.139v2699.183v0.091
		c18.453-6.825,36.682-14.018,54.729-21.574c7.189-2.927,14.244-6.136,21.392-9.253c12.363-5.357,24.685-10.851,36.913-16.576
		c7.967-3.711,15.891-7.604,23.813-11.404c11.635-5.682,23.085-11.635,34.579-17.592c7.375-3.891,14.793-7.644,22.171-11.674
		c15.573-8.568,31.095-17.407,46.3-26.474c6.598-3.938,13.1-7.97,19.606-12c13.188-8.107,26.241-16.397,39.205-24.918
		c7.054-4.716,14.06-9.524,21.067-14.332c10.537-7.237,20.887-14.563,31.191-22.077c7.006-5.084,14.012-10.125,20.887-15.346
		c10.991-8.334,21.889-16.901,32.655-25.509c5.538-4.442,11.218-8.749,16.669-13.235c15.343-12.734,30.459-25.649,45.301-38.933
		c5.491-4.947,10.805-10.074,16.254-15.068c10.031-9.253,19.926-18.55,29.638-28.03c5.996-5.953,11.998-11.862,17.859-17.86
		C2493.55,2597.166,2502.752,2587.597,2511.775,2577.934z"/>
	<path fill="#2057A7" d="M945.484,249.001c-18.549,6.849-36.868,14.105-55.028,21.687c-6.8,2.817-13.533,5.864-20.266,8.77
		c-12.801,5.59-25.512,11.246-38.107,17.128c-7.74,3.596-15.411,7.354-23.082,11.038c-11.931,5.864-23.749,11.912-35.497,18.096
		c-7.144,3.729-14.312,7.418-21.388,11.31c-16.305,8.841-32.449,18.092-48.412,27.596c-5.587,3.343-11.083,6.846-16.669,10.233
		c-13.604,8.383-27.162,16.948-40.442,25.765c-6.963,4.582-13.74,9.275-20.563,13.991c-10.697,7.331-21.299,14.819-31.789,22.469
		c-6.825,4.943-13.694,9.89-20.425,15c-11.313,8.515-22.422,17.291-33.482,26.153c-5.29,4.188-10.671,8.312-15.917,12.662
		c-15.457,12.708-30.663,25.764-45.547,39.111c-5.339,4.813-10.534,9.778-15.801,14.635c-10.167,9.413-20.246,18.872-30.185,28.582
		c-5.884,5.77-11.701,11.565-17.492,17.47c-9.438,9.53-18.735,19.216-27.894,29.019c-5.267,5.609-10.536,11.125-15.711,16.85
		c-12.94,14.291-25.648,28.81-38.061,43.651c-2.749,3.271-5.426,6.619-8.152,9.983c-11.131,13.532-22.031,27.296-32.701,41.314
		c-4.558,5.929-8.979,12.02-13.422,18.091c-8.219,11.084-16.257,22.303-24.134,33.687c-4.442,6.364-8.839,12.778-13.193,19.212
		c-8.471,12.639-16.716,25.439-24.798,38.425c-3.071,4.925-6.254,9.733-9.275,14.657c-10.694,17.585-21.023,35.473-30.985,53.542
		c-2.862,5.198-5.541,10.463-8.313,15.707c-7.26,13.491-14.313,27.139-21.138,40.856c-3.273,6.688-6.48,13.445-9.709,20.151
		c-6.299,13.258-12.319,26.61-18.229,40.032c-2.724,6.299-5.542,12.504-8.198,18.775c-8.152,19.396-16.03,39-23.334,58.832
		c-0.412,1.124-0.781,2.313-1.216,3.481c-6.914,18.873-13.371,37.95-19.485,57.206c-2.062,6.48-3.985,12.986-5.954,19.535
		c-4.399,14.448-8.567,28.989-12.506,43.623c-1.855,6.961-3.71,13.95-5.495,20.98c-4.054,16.073-7.787,32.243-11.291,48.524
		c-1.076,5.081-2.291,10.075-3.319,15.138c-4.305,21.206-8.177,42.546-11.543,64.029c-0.824,5.221-1.419,10.51-2.175,15.73
		c-2.428,16.583-4.58,33.3-6.435,50.062c-0.779,7.262-1.466,14.587-2.176,21.937c-1.44,15.643-2.655,31.419-3.596,47.201
		c-0.435,6.868-0.917,13.694-1.235,20.539C0.708,1553.772,0,1576.144,0,1598.678c0,22.612,0.708,44.965,1.717,67.267
		c0.319,6.92,0.801,13.654,1.235,20.521c0.94,15.8,2.155,31.559,3.596,47.173c0.71,7.423,1.397,14.704,2.176,21.987
		c1.855,16.718,4.007,33.433,6.411,49.97c0.757,5.266,1.375,10.579,2.199,15.847c3.366,21.478,7.238,42.822,11.519,63.981
		c1.053,5.086,2.315,10.26,3.414,15.435c3.481,16.123,7.167,32.196,11.221,48.135c1.785,7.146,3.663,14.199,5.542,21.253
		c3.892,14.52,8.039,28.948,12.389,43.233c1.994,6.643,3.962,13.329,6.067,19.925c6.001,18.915,12.367,37.648,19.146,56.243
		c0.642,1.695,1.189,3.482,1.831,5.174c7.193,19.468,14.933,38.659,22.924,57.713c2.77,6.504,5.656,12.958,8.495,19.418
		c5.771,13.19,11.725,26.288,17.864,39.25c3.297,6.961,6.619,13.927,10.029,20.749c6.619,13.466,13.559,26.702,20.588,39.939
		c2.954,5.538,5.793,11.131,8.816,16.669c9.893,17.866,20.107,35.636,30.732,53.036c3.252,5.316,6.689,10.535,10.032,15.847
		c7.806,12.459,15.753,24.872,23.975,37.146c4.488,6.688,9.091,13.42,13.74,20.062c7.627,10.945,15.391,21.758,23.291,32.431
		c4.715,6.406,9.389,12.912,14.242,19.277c9.986,13.099,20.246,25.97,30.686,38.745c4.077,4.996,8.2,10.035,12.369,14.978
		c11.497,13.694,23.22,27.163,35.196,40.352c5.542,6.138,11.244,12.141,16.877,18.137c8.705,9.297,17.497,18.457,26.427,27.482
		c6.206,6.367,12.436,12.594,18.778,18.734c9.208,9.065,18.642,17.905,28.123,26.651c5.91,5.454,11.725,10.991,17.679,16.353
		c14.609,13.055,29.449,25.832,44.565,38.338c6.09,4.988,12.366,9.842,18.572,14.745c10.098,8.061,20.266,16.122,30.57,23.909
		c7.376,5.498,14.841,10.944,22.328,16.396c9.643,7.008,19.398,13.878,29.2,20.656c7.603,5.226,15.161,10.444,22.832,15.526
		c11.609,7.696,23.427,15.067,35.288,22.442c9.208,5.682,18.481,11.36,27.847,16.899c13.421,7.924,26.93,15.714,40.627,23.177
		c8.106,4.49,16.372,8.7,24.592,12.965c10.491,5.538,21.024,10.899,31.673,16.118c8.68,4.258,17.357,8.475,26.106,12.599
		c10.992,5.079,22.145,10.026,33.297,14.883c8.243,3.618,16.442,7.325,24.754,10.766c17.817,7.371,35.749,14.424,53.906,21.158
		v-0.046V249.14V249.001z"/>
</g>
</svg>
