<?xml version="1.0" encoding="utf-8"?>
<!-- Generator: Adobe Illustrator 16.0.0, SVG Export Plug-In . SVG Version: 6.00 Build 0)  -->
<!DOCTYPE svg PUBLIC "-//W3C//DTD SVG 1.0//EN" "http://www.w3.org/TR/2001/REC-SVG-20010904/DTD/svg10.dtd">
<svg version="1.0" id="Calque_1" xmlns="http://www.w3.org/2000/svg" xmlns:xlink="http://www.w3.org/1999/xlink" x="0px" y="0px"
	 width="514px" height="295px" viewBox="0 0 514 295" enable-background="new 0 0 514 295" xml:space="preserve">
<path id="V_kontakte_1_" fill="#D73351" d="M281.797,293.868c12.967,0,18.297-8.643,18.123-19.469
	c-0.656-40.844,15.232-62.83,43.938-34.188c31.75,31.72,38.314,53.657,76.875,53.657c14.637,0,54.029,0,68.248,0
	c53.703,0,5.844-53.813-31.984-88.875c-35.971-33.346-37.672-34.144-6.688-74.259c38.453-49.812,88.734-113.999,44.252-113.999
	c-8.705,0-2.486,0-84.924,0c-16.484,0-17.688,9.607-23.529,23.438c-21.219,49.953-61.561,114.734-76.891,104.843
	c-16.047-10.344-8.705-45.437-7.469-106.232c0.33-16.063,0.232-27.109-24.328-32.798C210.296-9.577,152.125,21.017,175.888,25.424
	c33.5,6.251,30.283,72.845,22.484,104.109c-13.608,54.444-64.766-43.093-86.091-91.688c-5.144-11.688-6.704-21.108-25.079-21.108
	c-10.063,0-54.501,0-69.438,0c-13.376,0-19.937,6.125-15.264,18.547c4.67,12.404,58.404,132.429,121.937,200.897
	C183.233,299.556,241.356,293.868,281.797,293.868z"/>
</svg>
