<?xml version="1.0" encoding="utf-8"?>
<!-- Generator: Adobe Illustrator 16.0.0, SVG Export Plug-In . SVG Version: 6.00 Build 0)  -->
<!DOCTYPE svg PUBLIC "-//W3C//DTD SVG 1.1//EN" "http://www.w3.org/Graphics/SVG/1.1/DTD/svg11.dtd">
<svg version="1.1" id="Capa_1" xmlns="http://www.w3.org/2000/svg" xmlns:xlink="http://www.w3.org/1999/xlink" x="0px" y="0px"
	 width="841.89px" height="595.281px" viewBox="0 0 841.89 595.281" enable-background="new 0 0 841.89 595.281"
	 xml:space="preserve">
<g>
	<path d="M342.331,127.454C317.423,62.224,250.599,22.3,181.52,31.618C105.646,41.849,61.91,101.742,54.013,151.303
		c0.475-1.609,0.952-3.219,1.427-4.825C75.756,77.777,143.5,33.665,213.963,44.853c56.252,8.932,95.727,40.878,114.595,94.602
		c18.862,53.71,7.508,102.778-30.136,145.581c-4.439,5.043-4.526,6.126,0.333,11.59
		C343.321,260.944,367.152,192.457,342.331,127.454z"/>
	<path d="M284.051,189.164c-0.403,0.052-0.8,0.104-1.203,0.15c-2.758-10.036-5.521-20.071-8.256-30.026c-3.754,0-7.082,0-10.6,0
		c0,18.891,0,37.471,0,56.218c2.493,0,4.629,0,7.577,0c0-12.684,0-25.149,0-37.609c3.898,10.438,6.725,20.912,9.552,31.385
		c2.015,7.473,2.033,7.485,10.312,5.786c0-18.557,0-37.137,0-55.803c-2.493,0-4.629,0-7.381,0
		C284.051,169.415,284.051,179.289,284.051,189.164z"/>
	<path d="M220.176,119.71c-3.195-7.452-5.222-14.964-7.255-22.471c-2.307-8.51-2.313-8.51-11.318-7.747
		c-0.311,0.027-0.61,0.229-1.693,0.661c0,16.691-0.006,33.333,0.006,49.972c0.006,6.508,0.489,6.849,7.752,5.018
		c0-12.182,0-24.547,0-36.911c3.953,10.345,6.796,20.784,9.64,31.224c2.021,7.412,2.608,7.751,10.237,5.824
		c0-18.425,0-36.878,0-55.586c-2.395,0-4.485,0-7.37,0C220.176,99.902,220.176,109.807,220.176,119.71z"/>
	<path d="M219.353,187.897c5.251-5.93,6.708-18.171,3.057-24.021c-3.126-4.992-14.367-6.88-24.031-4.071c0,18.58,0,37.131,0,55.631
		c2.827,0,5.13,0,7.998,0c0-7.698,0-15.085,0-22.357c6.948-1.227,9.107,0.415,9.309,6.644c0.092,2.885,0.018,5.775,0.035,8.66
		c0.058,7.951,0.53,8.32,9.011,6.627C222.939,206.063,227.707,195.975,219.353,187.897z M214.487,182.07
		c-0.323,1.485-4.49,2.142-7.835,3.581c0-7.335,0-12.811,0-19.61c3.135,1.071,7.443,1.502,7.743,2.827
		C215.333,173.117,215.408,177.827,214.487,182.07z"/>
	<path d="M131.558,171.315c-0.354-8.193-4.89-12.632-12.749-12.912c-8.244-0.291-13.47,3.812-13.842,12.18
		c-0.492,11.176-0.495,22.409,0.004,33.584c0.376,8.366,5.615,12.46,13.866,12.155c7.862-0.288,12.366-4.727,12.723-12.932
		c0.23-5.257,0.042-10.525,0.042-15.788C131.603,182.174,131.792,176.733,131.558,171.315z M122.923,203.155
		c-0.021,3.132-1.347,5.407-4.743,5.395c-3.371-0.012-4.777-2.286-4.793-5.395c-0.05-10.531-0.05-21.056,0-31.586
		c0.016-3.109,1.425-5.378,4.796-5.389c3.395-0.012,4.719,2.263,4.74,5.389c0.035,5.268,0.011,10.531,0.011,15.793
		C122.934,192.63,122.958,197.893,122.923,203.155z"/>
	<path d="M177.608,158.4c-8.228,0.23-12.703,4.929-12.928,13.79c-0.131,5.09-0.024,10.186-0.024,15.275
		c0.003,5.095-0.122,10.191,0.029,15.275c0.262,8.786,4.862,13.456,13.133,13.588c8.365,0.132,13.317-4.244,13.631-13.036
		c0.372-10.508,0.348-21.05,0.023-31.563C191.193,162.69,186.154,158.164,177.608,158.4z M177.923,208.538
		c-3.432-0.075-4.563-2.487-4.576-5.562c-0.024-5.269-0.007-10.531-0.012-15.793c-0.004-5.096-0.017-10.191,0.003-15.287
		c0.01-3.305,1.234-5.815,4.944-5.712c3.375,0.098,4.618,2.487,4.629,5.568c0.035,10.358,0.038,20.716,0.009,31.074
		C182.909,206.126,181.612,208.613,177.923,208.538z"/>
	<path d="M242.665,158.918c-3.955-0.495-5.59,0.818-6.172,4.986c-1.969,14.101-4.417,28.126-6.639,42.187
		c-0.484,3.075-0.806,6.172-1.18,9.103c5.751,1.578,8.458,0.161,8.446-5.504c0-1.405,1.405-3.72,2.603-4.059
		c6.846-1.946,9.247-0.213,10.421,6.811c0.161,0.967,0.392,1.923,0.627,3.063c2.735,0,5.216,0,8.429,0
		c-3.063-19.104-6.04-37.632-9.074-56.535C247.358,158.97,244.974,159.207,242.665,158.918z M238.848,197.599
		c1.33-8.809,2.597-17.192,3.863-25.576c0.415,0.012,0.829,0.023,1.244,0.035c1.244,8.383,2.493,16.761,3.8,25.541
		C244.347,197.599,241.882,197.599,238.848,197.599z"/>
	<path d="M188.003,99.953c-1.867-11.74-1.834-11.746-14.527-10.1c-2.948,18.37-5.923,36.906-8.893,55.415
		c7.236,1.702,7.928,1.614,8.475-5.077c0.446-5.433,3.781-4.448,7.099-4.632c3.295-0.184,5.372,0.366,5.815,4.383
		c0.766,6.925,1.749,7.328,9.054,5.199c-0.144-1.45-0.213-2.959-0.449-4.444C192.402,127.115,190.164,113.54,188.003,99.953z
		 M175.063,127.812c1.315-8.87,2.566-17.318,3.819-25.765c0.381-0.019,0.764-0.037,1.148-0.058
		c1.288,8.425,2.575,16.85,3.944,25.822C181.042,127.812,178.5,127.812,175.063,127.812z"/>
	<path d="M145,106.741c-1.251-2.211-0.488-5.805,0.068-8.637c0.154-0.77,3.803-1.868,4.223-1.391
		c1.728,1.966,2.83,4.482,4.161,6.796c0.083,0.142,0.168,0.283,0.403,0.673c2.149,0,4.451,0,6.706,0
		c1.366-8.52-2.536-14.344-10.118-15.433c-8.253-1.187-14.107,3.096-15.176,11.233c-0.823,6.285,1.042,11.782,5.391,16.363
		c2.568,2.709,5.775,4.938,7.848,7.961c1.91,2.781,3.236,6.265,3.692,9.592c0.19,1.383-2.277,4.025-4.019,4.578
		c-2.847,0.904-4.762-1.087-5.175-4.104c-0.22-1.614-0.304-3.246-0.455-4.921c-2.654,0-4.818,0-7.63,0
		c0,2.07-0.089,3.584,0.013,5.087c0.51,7.417,4.749,11.677,11.907,12.032c8.111,0.403,12.904-3.194,14.099-10.774
		c1.188-7.545-1.778-13.523-7.056-18.744C150.652,113.856,147.197,110.617,145,106.741z"/>
	<path d="M246.932,111.648c-1.963-2.617-3.857-5.736-4.324-8.853c-0.276-1.87,1.802-5.35,3.587-6.003
		c3.408-1.247,5.142,1.386,5.4,4.811c0.063,0.809,0.34,1.601,0.559,2.598c2.332,0,4.474,0,6.956,0
		c1.203-9.163-2.839-14.783-10.79-15.527c-8.567-0.8-13.951,3.916-14.503,12.52c-0.397,6.158,1.635,11.33,5.907,15.672
		c2.614,2.659,5.815,4.91,7.819,7.96c1.837,2.798,2.954,6.372,3.271,9.71c0.115,1.228-2.85,3.644-4.618,3.862
		c-1.319,0.163-3.357-2.086-4.353-3.707c-0.789-1.287-0.478-3.248-0.679-5.159c-2.51,0-4.779,0-7.531,0
		c0,2.08-0.167,3.908,0.035,5.694c0.852,7.594,5.222,11.38,12.955,11.366c7.709-0.013,12.045-3.872,12.92-11.448
		c0.697-6.086-0.875-11.458-5.09-15.929C252.01,116.627,249.045,114.465,246.932,111.648z"/>
	<path d="M86.697,166.456c1.526-0.023,3.698,2.383,4.481,4.197c0.873,2.021,0.497,4.577,0.659,6.811
		c7.933,0.991,8.395,0.542,7.633-6.909c-0.064-0.679-0.152-1.353-0.271-2.021c-1.206-6.763-5.753-10.278-13.103-10.134
		c-7.092,0.138-12.042,3.639-12.317,10.295c-0.515,12.373-0.463,24.798-0.04,37.177c0.206,6.063,4.228,9.431,10.169,10.254
		c9.94,1.382,15.377-3.581,15.707-14.337c0.226-7.41,0.177-7.456-8.265-6.541c0,3.075,0.562,6.086-0.196,8.717
		c-0.51,1.785-2.873,4.209-4.408,4.209c-1.606,0-4.551-2.511-4.604-4.002c-0.392-11.199-0.395-22.426-0.001-33.625
		C82.193,169.023,85.089,166.479,86.697,166.456z"/>
	<path d="M314.089,215.482c0-16.254,0-32.249,0-48.468c3.479-0.19,6.259-0.339,9.011-0.489c0-2.712,0-4.851,0-7.269
		c-9.021,0-17.745,0-26.698,0c0,2.542,0,4.793,0,7.292c3.098,0.19,5.867,0.357,9.103,0.559c0,16.421,0,32.283,0,48.376
		C308.47,215.482,310.923,215.482,314.089,215.482z"/>
	<path d="M146.146,159.244c-3.067,0-5.369,0-8.002,0c0,18.824,0,37.381,0,56.209c7.687,0,15.051,0,22.615,0c0-2.562,0-4.813,0-7.606
		c-4.861,0-9.365,0-14.613,0C146.146,191.317,146.146,175.316,146.146,159.244z"/>
	<path fill="#FFFFFF" d="M206.652,166.041c0,6.8,0,12.275,0,19.61c3.345-1.439,7.512-2.096,7.835-3.581
		c0.921-4.244,0.846-8.953-0.092-13.203C214.096,167.543,209.788,167.112,206.652,166.041z"/>
	<path fill="#FFFFFF" d="M118.183,166.179c-3.371,0.011-4.78,2.28-4.796,5.389c-0.05,10.531-0.05,21.056,0,31.586
		c0.016,3.109,1.422,5.383,4.793,5.395c3.396,0.012,4.722-2.263,4.743-5.395c0.035-5.262,0.011-10.525,0.011-15.793
		c0-5.262,0.023-10.525-0.011-15.793C122.901,168.442,121.577,166.167,118.183,166.179z"/>
	<path fill="#FFFFFF" d="M178.283,166.185c-3.71-0.104-4.934,2.407-4.944,5.712c-0.02,5.096-0.007,10.191-0.003,15.287
		c0.004,5.262-0.013,10.525,0.012,15.793c0.013,3.074,1.144,5.487,4.576,5.562c3.689,0.075,4.986-2.412,4.998-5.711
		c0.029-10.358,0.026-20.716-0.009-31.074C182.9,168.672,181.658,166.283,178.283,166.185z"/>
	<path fill="#FFFFFF" d="M242.711,172.023c-1.267,8.383-2.534,16.767-3.863,25.576c3.034,0,5.499,0,8.907,0
		c-1.307-8.78-2.556-17.158-3.8-25.541C243.541,172.046,243.126,172.035,242.711,172.023z"/>
	<path fill="#FFFFFF" d="M178.882,102.047c-1.252,8.447-2.503,16.895-3.819,25.765c3.437,0,5.979,0,8.911,0
		c-1.369-8.972-2.656-17.397-3.944-25.822C179.646,102.01,179.263,102.028,178.882,102.047z"/>
</g>
<g>
	<path fill="#F0F0F0" d="M462.258,463.212c-0.413-0.6-0.825-1.198-1.228-1.803C461.433,462.014,461.845,462.613,462.258,463.212z"/>
	<path fill="#F0F0F0" d="M458.894,458.075c-0.295-0.477-0.603-0.943-0.892-1.421C458.292,457.131,458.599,457.598,458.894,458.075z"
		/>
	<path fill="#F0F0F0" d="M649.824,289.403c0.441,0.358,0.888,0.703,1.324,1.063C650.711,290.106,650.265,289.761,649.824,289.403z"
		/>
	<path fill="#F0F0F0" d="M655.245,294.017c0.451,0.406,0.889,0.825,1.33,1.236C656.133,294.842,655.696,294.423,655.245,294.017z"/>
	<path fill="#F0F0F0" d="M465.601,467.852c-0.43-0.569-0.848-1.147-1.27-1.727C464.753,466.705,465.171,467.283,465.601,467.852z"/>
	<path fill="#F0F0F0" d="M644.986,285.677c0.584,0.429,1.173,0.86,1.751,1.3C646.159,286.538,645.57,286.106,644.986,285.677z"/>
	<path fill="#F0F0F0" d="M474.083,477.932c-0.504-0.543-1.012-1.076-1.506-1.629C473.072,476.856,473.58,477.389,474.083,477.932z"
		/>
	<path fill="#F0F0F0" d="M469.44,472.684c-0.372-0.447-0.737-0.898-1.103-1.351C468.703,471.786,469.067,472.237,469.44,472.684z"/>
	<path fill="#F0F0F0" d="M447.355,434.498c-0.057-0.158-0.107-0.315-0.163-0.468C447.248,434.182,447.298,434.339,447.355,434.498z"
		/>
	<path fill="#F0F0F0" d="M635.372,279.254c0.392,0.236,0.777,0.485,1.163,0.723C636.149,279.739,635.763,279.49,635.372,279.254z"/>
	<path fill="#F0F0F0" d="M445.484,428.979c-0.188-0.588-0.361-1.188-0.541-1.786C445.123,427.792,445.296,428.391,445.484,428.979z"
		/>
	<path fill="#F0F0F0" d="M450.155,441.42c-0.253-0.578-0.512-1.157-0.757-1.74C449.643,440.263,449.902,440.842,450.155,441.42z"/>
	<path fill="#F0F0F0" d="M455.263,451.887c-0.271-0.492-0.523-0.994-0.787-1.492C454.74,450.893,454.992,451.395,455.263,451.887z"
		/>
	<path fill="#F0F0F0" d="M452.64,446.811c-0.303-0.619-0.599-1.238-0.892-1.862C452.042,445.573,452.337,446.192,452.64,446.811z"/>
	<path fill="#F0F0F0" d="M640.306,282.396c0.594,0.393,1.172,0.799,1.756,1.203C641.478,283.195,640.9,282.789,640.306,282.396z"/>
	<path fill="#F0F0F0" d="M513.765,506.926c-0.781-0.365-1.555-0.74-2.326-1.127C512.21,506.186,512.984,506.561,513.765,506.926z"/>
	<path fill="#F0F0F0" d="M508.614,504.353c-0.732-0.386-1.467-0.767-2.191-1.162C507.147,503.586,507.881,503.967,508.614,504.353z"
		/>
	<path fill="#F0F0F0" d="M668.264,307.598c0.188,0.226,0.365,0.457,0.549,0.683C668.629,308.055,668.453,307.824,668.264,307.598z"
		/>
	<path fill="#F0F0F0" d="M443.84,423.31c-0.169-0.635-0.337-1.27-0.496-1.904C443.503,422.041,443.671,422.675,443.84,423.31z"/>
	<path fill="#F0F0F0" d="M518.94,509.236c-0.742-0.31-1.473-0.645-2.208-0.969C517.467,508.591,518.198,508.926,518.94,509.236z"/>
	<path fill="#F0F0F0" d="M620.423,508.369c-0.635,0.278-1.265,0.568-1.903,0.837C619.159,508.937,619.789,508.647,620.423,508.369z"
		/>
	<path fill="#F0F0F0" d="M671.818,312.103c0.396,0.521,0.776,1.048,1.162,1.576C672.594,313.151,672.213,312.624,671.818,312.103z"
		/>
	<path fill="#F0F0F0" d="M502.8,501.11c-0.833-0.498-1.659-1.005-2.481-1.518C501.141,500.105,501.965,500.612,502.8,501.11z"/>
	<path fill="#F0F0F0" d="M492.537,494.328c-0.667-0.487-1.333-0.979-1.991-1.477C491.204,493.348,491.87,493.84,492.537,494.328z"/>
	<path fill="#F0F0F0" d="M482.195,485.943c-0.533-0.482-1.051-0.98-1.576-1.473C481.144,484.962,481.66,485.46,482.195,485.943z"/>
	<path fill="#F0F0F0" d="M487.822,490.708c-0.551-0.441-1.112-0.878-1.655-1.324C486.709,489.835,487.271,490.267,487.822,490.708z"
		/>
	<path fill="#F0F0F0" d="M659.346,297.898c0.513,0.502,1.015,1.008,1.513,1.518C660.361,298.906,659.859,298.4,659.346,297.898z"/>
	<path fill="#F0F0F0" d="M663.407,302.088c0.452,0.484,0.903,0.964,1.345,1.454C664.31,303.052,663.859,302.573,663.407,302.088z"/>
	<path fill="#F0F0F0" d="M656.666,484.562c-0.481,0.451-0.959,0.908-1.446,1.35C655.707,485.47,656.184,485.013,656.666,484.562z"/>
	<path fill="#F0F0F0" d="M497.175,497.577c-0.686-0.457-1.36-0.929-2.037-1.401C495.815,496.648,496.49,497.12,497.175,497.577z"/>
	<path fill="#F0F0F0" d="M478.109,482.08c-0.563-0.554-1.119-1.111-1.672-1.68C476.99,480.968,477.546,481.526,478.109,482.08z"/>
	<path fill="#F0F0F0" d="M439.731,397.833c-0.036-0.614-0.079-1.229-0.108-1.843C439.652,396.605,439.695,397.219,439.731,397.833z"
		/>
	<path fill="#F0F0F0" d="M486.213,290.482c0.466-0.386,0.946-0.756,1.419-1.137C487.16,289.726,486.679,290.096,486.213,290.482z"/>
	<path fill="#F0F0F0" d="M490.616,287c0.602-0.457,1.211-0.903,1.819-1.35C491.827,286.096,491.217,286.543,490.616,287z"/>
	<path fill="#F0F0F0" d="M480.746,295.309c0.469-0.434,0.932-0.88,1.407-1.31C481.677,294.429,481.214,294.873,480.746,295.309z"/>
	<path fill="#F0F0F0" d="M472.61,303.563c0.459-0.513,0.931-1.011,1.398-1.513C473.541,302.552,473.069,303.05,472.61,303.563z"/>
	<path fill="#F0F0F0" d="M468.488,308.377c0.244-0.3,0.482-0.602,0.729-0.898C468.97,307.776,468.732,308.078,468.488,308.377z"/>
	<path fill="#F0F0F0" d="M476.494,299.444c0.518-0.528,1.037-1.051,1.563-1.569C477.53,298.393,477.011,298.916,476.494,299.444z"/>
	<path fill="#F0F0F0" d="M495.269,283.634c0.609-0.421,1.215-0.845,1.831-1.256C496.484,282.789,495.878,283.213,495.269,283.634z"
		/>
	<path fill="#F0F0F0" d="M464.376,313.712c0.398-0.543,0.792-1.089,1.197-1.627C465.168,312.624,464.775,313.169,464.376,313.712z"
		/>
	<path fill="#F0F0F0" d="M500.708,280.066c0.496-0.307,0.988-0.619,1.487-0.921C501.696,279.447,501.204,279.759,500.708,280.066z"
		/>
	<path fill="#F0F0F0" d="M442.344,417.077c-0.098-0.462-0.21-0.924-0.304-1.386C442.134,416.153,442.247,416.615,442.344,417.077z"
		/>
	<path fill="#F0F0F0" d="M623.778,273.051c0.665,0.315,1.325,0.637,1.985,0.962C625.103,273.688,624.443,273.366,623.778,273.051z"
		/>
	<path fill="#F0F0F0" d="M568.69,260.731c-15.807,0-30.946,2.85-44.945,8.045v242.353c13.999,5.193,29.139,8.046,44.945,8.046
		c15.811,0,30.947-2.853,44.946-8.046V268.777C599.637,263.582,584.5,260.731,568.69,260.731z"/>
	<path fill="#F0F0F0" d="M506.51,276.665c0.629-0.348,1.269-0.678,1.904-1.013C507.779,275.987,507.139,276.317,506.51,276.665z"/>
	<path fill="#F0F0F0" d="M517.031,271.5c0.604-0.261,1.199-0.535,1.808-0.789C518.23,270.965,517.634,271.239,517.031,271.5z"/>
	<path fill="#F0F0F0" d="M511.58,274.031c0.683-0.335,1.368-0.67,2.057-0.995C512.946,273.36,512.262,273.696,511.58,274.031z"/>
	<path fill="#F0F0F0" d="M618.565,270.718c0.574,0.241,1.143,0.503,1.711,0.751C619.708,271.221,619.139,270.959,618.565,270.718z"
		/>
	<path fill="#F0F0F0" d="M439.623,383.914c0.029-0.617,0.072-1.229,0.108-1.843C439.695,382.685,439.652,383.296,439.623,383.914z"
		/>
	<path fill="#F0F0F0" d="M440.053,377.83c0.063-0.657,0.124-1.314,0.196-1.97C440.177,376.515,440.116,377.172,440.053,377.83z"/>
	<path fill="#F0F0F0" d="M440.82,371.368c0.067-0.469,0.122-0.943,0.195-1.411C440.942,370.424,440.887,370.899,440.82,371.368z"/>
	<path fill="#F0F0F0" d="M442.042,364.206c0.092-0.454,0.201-0.903,0.298-1.357C442.244,363.302,442.134,363.751,442.042,364.206z"
		/>
	<path fill="#F0F0F0" d="M441.015,409.95c-0.073-0.473-0.129-0.949-0.196-1.422C440.886,409,440.942,409.477,441.015,409.95z"/>
	<path fill="#F0F0F0" d="M675.172,316.76c0.381,0.559,0.767,1.117,1.143,1.683C675.939,317.877,675.553,317.319,675.172,316.76z"/>
	<path fill="#F0F0F0" d="M440.25,404.042c-0.072-0.655-0.135-1.31-0.196-1.97C440.116,402.732,440.177,403.386,440.25,404.042z"/>
	<path fill="#F0F0F0" d="M444.949,352.688c0.177-0.586,0.348-1.172,0.531-1.753C445.296,351.516,445.125,352.102,444.949,352.688z"
		/>
	<path fill="#F0F0F0" d="M454.509,329.446c0.25-0.47,0.488-0.944,0.742-1.411C454.998,328.501,454.759,328.976,454.509,329.446z"/>
	<path fill="#F0F0F0" d="M451.763,334.925c0.283-0.604,0.57-1.208,0.865-1.808C452.333,333.717,452.046,334.321,451.763,334.925z"/>
	<path fill="#F0F0F0" d="M458.015,323.227c0.268-0.441,0.552-0.873,0.824-1.314C458.567,322.354,458.283,322.786,458.015,323.227z"
		/>
	<path fill="#F0F0F0" d="M447.216,345.8c0.039-0.106,0.07-0.213,0.108-0.314C447.287,345.589,447.255,345.694,447.216,345.8z"/>
	<path fill="#F0F0F0" d="M449.406,340.207c0.236-0.566,0.487-1.124,0.731-1.688C449.893,339.083,449.643,339.64,449.406,340.207z"/>
	<path fill="#F0F0F0" d="M461.052,318.46c0.387-0.578,0.778-1.151,1.174-1.723C461.831,317.309,461.439,317.882,461.052,318.46z"/>
	<path fill="#F0F0F0" d="M629.022,275.683c0.609,0.323,1.218,0.637,1.822,0.967C630.24,276.32,629.631,276.005,629.022,275.683z"/>
	<path fill="#F0F0F0" d="M443.347,358.488c0.156-0.63,0.323-1.257,0.489-1.883C443.67,357.231,443.503,357.858,443.347,358.488z"/>
	<path fill="#F0F0F0" d="M696.558,408.534c-0.066,0.472-0.122,0.943-0.192,1.416C696.436,409.477,696.492,409.005,696.558,408.534z"
		/>
	<path fill="#F0F0F0" d="M697.325,402.077c-0.061,0.655-0.122,1.31-0.193,1.959C697.203,403.386,697.264,402.732,697.325,402.077z"
		/>
	<path fill="#F0F0F0" d="M697.756,395.991c-0.025,0.614-0.071,1.223-0.107,1.837C697.685,397.213,697.731,396.605,697.756,395.991z"
		/>
	<path fill="#F0F0F0" d="M694.036,421.412c-0.163,0.634-0.325,1.264-0.492,1.893C693.71,422.675,693.877,422.045,694.036,421.412z"
		/>
	<path fill="#F0F0F0" d="M673.016,466.171c-0.401,0.554-0.808,1.111-1.219,1.655C672.208,467.283,672.61,466.725,673.016,466.171z"
		/>
	<path fill="#F0F0F0" d="M695.34,415.696c-0.097,0.457-0.203,0.908-0.3,1.365C695.137,416.604,695.244,416.153,695.34,415.696z"/>
	<path fill="#F0F0F0" d="M695.041,362.861c0.097,0.449,0.203,0.894,0.294,1.343C695.244,363.754,695.137,363.31,695.041,362.861z"/>
	<path fill="#F0F0F0" d="M696.366,369.957c0.07,0.468,0.126,0.939,0.192,1.406C696.492,370.896,696.436,370.424,696.366,369.957z"/>
	<path fill="#F0F0F0" d="M697.649,382.076c0.036,0.612,0.082,1.224,0.107,1.838C697.731,383.299,697.685,382.688,697.649,382.076z"
		/>
	<path fill="#F0F0F0" d="M697.131,375.868c0.071,0.65,0.133,1.303,0.193,1.955C697.264,377.17,697.203,376.518,697.131,375.868z"/>
	<path fill="#F0F0F0" d="M646.783,492.891c-0.614,0.468-1.238,0.924-1.862,1.381C645.544,493.815,646.168,493.359,646.783,492.891z"
		/>
	<path fill="#F0F0F0" d="M692.431,427.208c-0.178,0.589-0.345,1.178-0.533,1.767C692.086,428.385,692.253,427.796,692.431,427.208z"
		/>
	<path fill="#F0F0F0" d="M660.899,480.445c-0.522,0.538-1.056,1.071-1.589,1.6C659.843,481.516,660.376,480.983,660.899,480.445z"/>
	<path fill="#F0F0F0" d="M679.371,456.669c-0.279,0.451-0.568,0.898-0.853,1.35C678.802,457.568,679.091,457.121,679.371,456.669z"
		/>
	<path fill="#F0F0F0" d="M625.839,505.856c-0.706,0.345-1.416,0.69-2.127,1.025C624.423,506.546,625.133,506.201,625.839,505.856z"
		/>
	<path fill="#F0F0F0" d="M668.94,471.465c-0.285,0.351-0.563,0.701-0.848,1.041C668.376,472.167,668.655,471.816,668.94,471.465z"/>
	<path fill="#F0F0F0" d="M676.335,461.43c-0.391,0.589-0.792,1.168-1.193,1.752C675.543,462.598,675.945,462.019,676.335,461.43z"/>
	<path fill="#F0F0F0" d="M682.883,450.431c-0.254,0.481-0.497,0.969-0.762,1.446C682.386,451.4,682.629,450.913,682.883,450.431z"/>
	<path fill="#F0F0F0" d="M651.178,489.41c-0.487,0.405-0.989,0.792-1.487,1.192C650.189,490.202,650.691,489.815,651.178,489.41z"/>
	<path fill="#F0F0F0" d="M690.172,434.076c-0.046,0.122-0.081,0.244-0.127,0.365C690.091,434.32,690.126,434.198,690.172,434.076z"
		/>
	<path fill="#F0F0F0" d="M664.777,476.333c-0.467,0.518-0.949,1.025-1.426,1.538C663.828,477.359,664.31,476.851,664.777,476.333z"
		/>
	<path fill="#F0F0F0" d="M687.975,439.685c-0.239,0.578-0.493,1.146-0.741,1.716C687.482,440.832,687.736,440.263,687.975,439.685z"
		/>
	<path fill="#F0F0F0" d="M685.625,444.963c-0.289,0.614-0.579,1.224-0.878,1.833C685.045,446.187,685.335,445.578,685.625,444.963z"
		/>
	<path fill="#F0F0F0" d="M690.056,345.491c0.03,0.086,0.061,0.175,0.091,0.259C690.117,345.664,690.086,345.577,690.056,345.491z"/>
	<path fill="#F0F0F0" d="M642.143,496.247c-0.624,0.437-1.248,0.868-1.883,1.289C640.895,497.115,641.514,496.683,642.143,496.247z"
		/>
	<path fill="#F0F0F0" d="M687.249,338.537c0.244,0.553,0.487,1.104,0.721,1.662C687.736,339.64,687.493,339.089,687.249,338.537z"/>
	<path fill="#F0F0F0" d="M636.768,499.775c-0.579,0.36-1.157,0.726-1.746,1.076C635.611,500.5,636.189,500.135,636.768,499.775z"/>
	<path fill="#F0F0F0" d="M678.569,321.958c0.259,0.421,0.533,0.832,0.787,1.256C679.102,322.791,678.828,322.379,678.569,321.958z"
		/>
	<path fill="#F0F0F0" d="M684.756,333.13c0.289,0.592,0.573,1.186,0.853,1.782C685.33,334.316,685.045,333.722,684.756,333.13z"/>
	<path fill="#F0F0F0" d="M630.89,503.226c-0.65,0.36-1.315,0.706-1.975,1.051C629.575,503.932,630.24,503.586,630.89,503.226z"/>
	<path fill="#F0F0F0" d="M682.132,328.044c0.249,0.452,0.477,0.911,0.721,1.365C682.609,328.956,682.381,328.497,682.132,328.044z"
		/>
	<path fill="#F0F0F0" d="M693.543,356.612c0.167,0.622,0.329,1.244,0.486,1.871C693.873,357.856,693.71,357.234,693.543,356.612z"/>
	<path fill="#F0F0F0" d="M691.904,350.942c0.183,0.574,0.35,1.155,0.522,1.731C692.253,352.097,692.086,351.516,691.904,350.942z"/>
	<path fill="#D80027" d="M663.351,477.872c0.477-0.513,0.959-1.021,1.426-1.538c1.127-1.254,2.233-2.527,3.315-3.827
		c0.284-0.34,0.563-0.69,0.848-1.041c0.969-1.192,1.924-2.405,2.857-3.639c0.411-0.544,0.817-1.102,1.219-1.655
		c0.726-0.984,1.431-1.984,2.126-2.989c0.401-0.584,0.803-1.163,1.193-1.752c0.746-1.121,1.472-2.264,2.183-3.411
		c0.284-0.451,0.573-0.898,0.853-1.35c0.949-1.579,1.868-3.173,2.751-4.792c0.265-0.478,0.508-0.965,0.762-1.446
		c0.64-1.203,1.264-2.411,1.863-3.635c0.299-0.609,0.589-1.219,0.878-1.833c0.553-1.177,1.091-2.365,1.609-3.563
		c0.248-0.569,0.502-1.138,0.741-1.716c0.726-1.731,1.421-3.478,2.07-5.244c0.046-0.121,0.081-0.243,0.127-0.365
		c0.609-1.686,1.183-3.386,1.726-5.102c0.188-0.589,0.355-1.178,0.533-1.767c0.391-1.294,0.762-2.594,1.112-3.903
		c0.167-0.629,0.329-1.259,0.492-1.893c0.36-1.442,0.69-2.894,1.005-4.351c0.097-0.457,0.203-0.908,0.3-1.365
		c0.38-1.903,0.726-3.817,1.025-5.746c0.07-0.473,0.126-0.944,0.192-1.416c0.218-1.492,0.411-2.99,0.573-4.498
		c0.071-0.649,0.133-1.304,0.193-1.959c0.132-1.411,0.238-2.827,0.324-4.249c0.036-0.614,0.082-1.223,0.107-1.837
		c0.091-2.005,0.152-4.016,0.152-6.041c0-2.023-0.062-4.034-0.152-6.036c-0.025-0.614-0.071-1.226-0.107-1.838
		c-0.086-1.424-0.192-2.843-0.324-4.253c-0.061-0.652-0.122-1.305-0.193-1.955c-0.162-1.51-0.355-3.01-0.573-4.505
		c-0.066-0.467-0.122-0.938-0.192-1.406c-0.3-1.934-0.646-3.85-1.031-5.753c-0.091-0.449-0.197-0.894-0.294-1.343
		c-0.31-1.467-0.645-2.929-1.011-4.378c-0.157-0.627-0.319-1.249-0.486-1.871c-0.351-1.322-0.727-2.634-1.117-3.938
		c-0.173-0.576-0.34-1.157-0.522-1.731c-0.554-1.746-1.132-3.479-1.757-5.192c-0.03-0.084-0.061-0.173-0.091-0.259
		c-0.655-1.784-1.355-3.546-2.087-5.292c-0.233-0.559-0.477-1.109-0.721-1.662c-0.527-1.219-1.071-2.427-1.64-3.624
		c-0.279-0.597-0.563-1.19-0.853-1.782c-0.614-1.251-1.249-2.489-1.903-3.721c-0.244-0.454-0.472-0.913-0.721-1.365
		c-0.889-1.63-1.817-3.241-2.776-4.83c-0.254-0.424-0.528-0.835-0.787-1.256c-0.736-1.183-1.482-2.358-2.254-3.516
		c-0.376-0.565-0.762-1.124-1.143-1.683c-0.715-1.038-1.446-2.065-2.192-3.081c-0.386-0.528-0.767-1.056-1.162-1.576
		c-0.975-1.292-1.979-2.568-3.005-3.822c-0.184-0.226-0.36-0.457-0.549-0.683c-1.137-1.378-2.314-2.726-3.513-4.056
		c-0.441-0.49-0.893-0.97-1.345-1.454c-0.838-0.901-1.686-1.794-2.548-2.673c-0.498-0.51-1-1.016-1.513-1.518
		c-0.909-0.896-1.833-1.774-2.771-2.645c-0.441-0.411-0.879-0.83-1.33-1.236c-1.34-1.21-2.706-2.396-4.097-3.55
		c-0.437-0.36-0.883-0.706-1.324-1.063c-1.021-0.822-2.046-1.634-3.087-2.426c-0.578-0.439-1.167-0.871-1.751-1.3
		c-0.964-0.705-1.938-1.398-2.924-2.078c-0.584-0.404-1.162-0.81-1.756-1.203c-1.239-0.828-2.498-1.632-3.771-2.419
		c-0.386-0.238-0.771-0.487-1.163-0.723c-1.487-0.898-3-1.764-4.527-2.604c-0.604-0.33-1.213-0.645-1.822-0.967
		c-1.076-0.571-2.162-1.129-3.259-1.67c-0.66-0.325-1.32-0.647-1.985-0.962c-1.157-0.545-2.324-1.068-3.502-1.581
		c-0.568-0.249-1.137-0.51-1.711-0.751c-1.629-0.68-3.269-1.335-4.929-1.952v0.01v242.353v0.005c1.645-0.608,3.27-1.259,4.884-1.929
		c0.639-0.269,1.269-0.559,1.903-0.837c1.102-0.482,2.203-0.975,3.289-1.487c0.711-0.335,1.421-0.681,2.127-1.025
		c1.035-0.513,2.056-1.041,3.076-1.579c0.659-0.345,1.324-0.69,1.975-1.051c1.396-0.767,2.771-1.559,4.132-2.375
		c0.589-0.351,1.167-0.716,1.746-1.076c1.178-0.727,2.345-1.473,3.492-2.239c0.635-0.421,1.259-0.853,1.883-1.289
		c0.935-0.645,1.858-1.305,2.777-1.975c0.624-0.457,1.248-0.913,1.862-1.381c0.985-0.751,1.949-1.518,2.908-2.289
		c0.498-0.4,1-0.787,1.487-1.192c1.371-1.138,2.716-2.305,4.041-3.498c0.487-0.441,0.965-0.898,1.446-1.35
		c0.894-0.827,1.776-1.665,2.645-2.518c0.533-0.528,1.066-1.062,1.589-1.6C661.732,479.597,662.549,478.74,663.351,477.872z"/>
	<path fill="#0052B4" d="M523.745,268.767c-1.652,0.614-3.287,1.264-4.906,1.944c-0.608,0.254-1.204,0.528-1.808,0.789
		c-1.14,0.5-2.272,1.008-3.395,1.536c-0.688,0.325-1.374,0.66-2.057,0.995c-1.064,0.525-2.118,1.068-3.165,1.622
		c-0.636,0.335-1.275,0.665-1.904,1.013c-1.456,0.799-2.895,1.627-4.315,2.479c-0.499,0.302-0.991,0.614-1.487,0.921
		c-1.214,0.751-2.42,1.521-3.607,2.312c-0.616,0.411-1.222,0.835-1.831,1.256c-0.953,0.66-1.898,1.33-2.834,2.015
		c-0.608,0.447-1.218,0.894-1.819,1.35c-1.008,0.767-1.999,1.551-2.983,2.345c-0.473,0.381-0.953,0.751-1.419,1.137
		c-1.38,1.145-2.731,2.317-4.061,3.518c-0.476,0.429-0.938,0.875-1.407,1.31c-0.908,0.845-1.807,1.695-2.689,2.566
		c-0.525,0.518-1.045,1.041-1.563,1.569c-0.841,0.854-1.668,1.726-2.485,2.606c-0.468,0.502-0.939,1-1.398,1.513
		c-1.155,1.284-2.29,2.586-3.394,3.916c-0.246,0.297-0.484,0.599-0.729,0.898c-0.992,1.218-1.965,2.454-2.914,3.708
		c-0.405,0.538-0.799,1.084-1.197,1.627c-0.73,0.997-1.447,2.005-2.15,3.025c-0.396,0.571-0.787,1.145-1.174,1.723
		c-0.756,1.138-1.492,2.29-2.213,3.452c-0.272,0.441-0.557,0.873-0.824,1.314c-0.955,1.581-1.876,3.186-2.764,4.808
		c-0.254,0.467-0.492,0.941-0.742,1.411c-0.646,1.213-1.274,2.436-1.881,3.672c-0.295,0.6-0.582,1.203-0.865,1.808
		c-0.562,1.188-1.101,2.388-1.626,3.594c-0.244,0.563-0.495,1.121-0.731,1.688c-0.727,1.741-1.429,3.497-2.081,5.279
		c-0.038,0.102-0.069,0.208-0.108,0.314c-0.616,1.692-1.191,3.406-1.736,5.135c-0.184,0.581-0.354,1.167-0.531,1.753
		c-0.391,1.297-0.762,2.602-1.112,3.917c-0.166,0.626-0.333,1.253-0.489,1.883c-0.362,1.444-0.695,2.898-1.007,4.36
		c-0.097,0.454-0.206,0.903-0.298,1.357c-0.385,1.904-0.728,3.82-1.027,5.751c-0.073,0.468-0.128,0.942-0.195,1.411
		c-0.216,1.49-0.408,2.987-0.57,4.492c-0.072,0.655-0.134,1.313-0.196,1.97c-0.13,1.406-0.235,2.822-0.322,4.241
		c-0.036,0.614-0.079,1.226-0.108,1.843c-0.092,2.002-0.152,4.013-0.152,6.036c0,2.025,0.061,4.036,0.152,6.041
		c0.029,0.614,0.072,1.229,0.108,1.843c0.087,1.416,0.192,2.832,0.322,4.238c0.062,0.66,0.124,1.314,0.196,1.97
		c0.162,1.502,0.354,3,0.569,4.486c0.067,0.473,0.123,0.949,0.196,1.422c0.3,1.929,0.643,3.843,1.025,5.741
		c0.094,0.462,0.206,0.924,0.304,1.386c0.311,1.451,0.641,2.893,1,4.329c0.159,0.635,0.327,1.27,0.496,1.904
		c0.348,1.304,0.716,2.599,1.103,3.883c0.18,0.599,0.354,1.198,0.541,1.786c0.537,1.701,1.103,3.387,1.708,5.051
		c0.056,0.152,0.106,0.31,0.163,0.468c0.643,1.746,1.33,3.467,2.043,5.183c0.245,0.583,0.504,1.162,0.757,1.74
		c0.515,1.188,1.044,2.36,1.594,3.528c0.293,0.624,0.589,1.243,0.892,1.862c0.592,1.203,1.207,2.396,1.836,3.584
		c0.264,0.498,0.516,1,0.787,1.492c0.88,1.609,1.793,3.198,2.739,4.767c0.289,0.478,0.597,0.944,0.892,1.421
		c0.697,1.122,1.406,2.234,2.137,3.335c0.402,0.604,0.814,1.203,1.228,1.803c0.678,0.984,1.37,1.954,2.073,2.913
		c0.422,0.579,0.84,1.157,1.27,1.727c0.891,1.177,1.806,2.334,2.736,3.481c0.365,0.452,0.73,0.903,1.103,1.351
		c1.024,1.223,2.069,2.432,3.138,3.619c0.494,0.553,1.002,1.086,1.506,1.629c0.775,0.833,1.558,1.655,2.354,2.468
		c0.553,0.568,1.109,1.126,1.672,1.68c0.824,0.813,1.664,1.604,2.51,2.391c0.525,0.492,1.043,0.99,1.576,1.473
		c1.301,1.172,2.624,2.319,3.972,3.441c0.543,0.446,1.104,0.883,1.655,1.324c0.9,0.721,1.804,1.442,2.724,2.143
		c0.658,0.497,1.324,0.989,1.991,1.477c0.859,0.63,1.728,1.244,2.602,1.848c0.677,0.473,1.352,0.944,2.037,1.401
		c1.035,0.686,2.087,1.355,3.144,2.016c0.822,0.513,1.648,1.02,2.481,1.518c1.197,0.71,2.401,1.406,3.622,2.081
		c0.725,0.396,1.459,0.776,2.191,1.162c0.936,0.492,1.876,0.979,2.825,1.446c0.771,0.387,1.545,0.762,2.326,1.127
		c0.98,0.462,1.973,0.904,2.967,1.341c0.735,0.324,1.466,0.659,2.208,0.969c1.586,0.66,3.187,1.295,4.805,1.898v-0.005V268.777
		V268.767z"/>
</g>
</svg>
