<?xml version="1.0" encoding="utf-8"?>
<!-- Generator: Adobe Illustrator 16.0.0, SVG Export Plug-In . SVG Version: 6.00 Build 0)  -->
<!DOCTYPE svg PUBLIC "-//W3C//DTD SVG 1.1//EN" "http://www.w3.org/Graphics/SVG/1.1/DTD/svg11.dtd">
<svg version="1.1" id="Calque_1" xmlns="http://www.w3.org/2000/svg" xmlns:xlink="http://www.w3.org/1999/xlink" x="0px" y="0px"
	 width="122px" height="122px" viewBox="0 0 122 122" enable-background="new 0 0 122 122" xml:space="preserve">
<g>
	<circle fill="#5FA9DD" cx="61.357" cy="60.822" r="60.941"/>
	<g>
		<path fill="#F2F2F2" d="M98.687,43.677c-2.611,1.158-5.422,1.944-8.368,2.292c3.009-1.802,5.318-4.654,6.406-8.058
			c-2.813,1.67-5.933,2.882-9.25,3.534c-2.657-2.83-6.442-4.599-10.637-4.599c-8.041,0-14.565,6.523-14.565,14.567
			c0,1.141,0.13,2.254,0.379,3.321c-12.104-0.609-22.84-6.407-30.024-15.222c-1.255,2.15-1.973,4.655-1.973,7.323
			c0,5.053,2.573,9.514,6.48,12.125c-2.388-0.077-4.635-0.729-6.599-1.824c-0.001,0.063-0.001,0.123-0.001,0.185
			c0,7.057,5.024,12.943,11.687,14.281c-1.221,0.335-2.51,0.512-3.836,0.512c-0.94,0-1.853-0.09-2.741-0.258
			c1.852,5.782,7.232,9.996,13.608,10.114c-4.987,3.907-11.266,6.235-18.093,6.235c-1.174,0-2.336-0.067-3.473-0.205
			c6.443,4.137,14.101,6.546,22.328,6.546c26.793,0,41.444-22.194,41.444-41.446c0-0.631-0.012-1.261-0.04-1.884
			C94.265,49.166,96.732,46.599,98.687,43.677L98.687,43.677z"/>
	</g>
</g>
</svg>
