<?xml version="1.0" encoding="utf-8"?>
<!-- Generator: Adobe Illustrator 16.0.0, SVG Export Plug-In . SVG Version: 6.00 Build 0)  -->
<!DOCTYPE svg PUBLIC "-//W3C//DTD SVG 1.0//EN" "http://www.w3.org/TR/2001/REC-SVG-20010904/DTD/svg10.dtd">
<svg version="1.0" id="Calque_1" xmlns="http://www.w3.org/2000/svg" xmlns:xlink="http://www.w3.org/1999/xlink" x="0px" y="0px"
	 width="125px" height="125px" viewBox="0 0 125 125" enable-background="new 0 0 125 125" xml:space="preserve">
<g>
	<circle fill="#5FA8DC" cx="62.375" cy="61.932" r="60.888"/>
	<g>
		<path fill="#F1F1F1" d="M99.672,44.801c-2.609,1.157-5.416,1.943-8.36,2.291c3.005-1.801,5.313-4.651,6.4-8.051
			c-2.812,1.668-5.927,2.879-9.242,3.531c-2.654-2.827-6.437-4.596-10.626-4.596c-8.035,0-14.555,6.519-14.555,14.554
			c0,1.142,0.13,2.253,0.379,3.317c-12.094-0.607-22.819-6.4-29.996-15.207c-1.254,2.147-1.972,4.65-1.972,7.316
			c0,5.049,2.571,9.506,6.475,12.114c-2.387-0.076-4.633-0.729-6.593-1.822c-0.001,0.062-0.001,0.123-0.001,0.185
			c0,7.051,5.018,12.932,11.675,14.27c-1.22,0.333-2.509,0.512-3.833,0.512c-0.939,0-1.851-0.091-2.738-0.26
			c1.851,5.779,7.226,9.988,13.595,10.107c-4.981,3.903-11.256,6.229-18.076,6.229c-1.172,0-2.335-0.067-3.47-0.204
			c6.437,4.133,14.088,6.54,22.307,6.54c26.771,0,41.41-22.176,41.41-41.41c0-0.631-0.015-1.26-0.043-1.882
			C95.254,50.285,97.721,47.722,99.672,44.801L99.672,44.801z"/>
	</g>
</g>
</svg>
